%TF.GenerationSoftware,KiCad,Pcbnew,9.0.0*%
%TF.CreationDate,2025-06-23T18:52:11-04:00*%
%TF.ProjectId,CRSF_PWM_Gyro,43525346-5f50-4574-9d5f-4779726f2e6b,rev?*%
%TF.SameCoordinates,Original*%
%TF.FileFunction,Paste,Top*%
%TF.FilePolarity,Positive*%
%FSLAX46Y46*%
G04 Gerber Fmt 4.6, Leading zero omitted, Abs format (unit mm)*
G04 Created by KiCad (PCBNEW 9.0.0) date 2025-06-23 18:52:11*
%MOMM*%
%LPD*%
G01*
G04 APERTURE LIST*
G04 Aperture macros list*
%AMRoundRect*
0 Rectangle with rounded corners*
0 $1 Rounding radius*
0 $2 $3 $4 $5 $6 $7 $8 $9 X,Y pos of 4 corners*
0 Add a 4 corners polygon primitive as box body*
4,1,4,$2,$3,$4,$5,$6,$7,$8,$9,$2,$3,0*
0 Add four circle primitives for the rounded corners*
1,1,$1+$1,$2,$3*
1,1,$1+$1,$4,$5*
1,1,$1+$1,$6,$7*
1,1,$1+$1,$8,$9*
0 Add four rect primitives between the rounded corners*
20,1,$1+$1,$2,$3,$4,$5,0*
20,1,$1+$1,$4,$5,$6,$7,0*
20,1,$1+$1,$6,$7,$8,$9,0*
20,1,$1+$1,$8,$9,$2,$3,0*%
G04 Aperture macros list end*
%ADD10RoundRect,0.160000X-0.160000X0.197500X-0.160000X-0.197500X0.160000X-0.197500X0.160000X0.197500X0*%
%ADD11RoundRect,0.155000X0.212500X0.155000X-0.212500X0.155000X-0.212500X-0.155000X0.212500X-0.155000X0*%
%ADD12RoundRect,0.155000X-0.212500X-0.155000X0.212500X-0.155000X0.212500X0.155000X-0.212500X0.155000X0*%
%ADD13RoundRect,0.155000X-0.155000X0.212500X-0.155000X-0.212500X0.155000X-0.212500X0.155000X0.212500X0*%
%ADD14RoundRect,0.150000X-0.450000X-0.150000X0.450000X-0.150000X0.450000X0.150000X-0.450000X0.150000X0*%
%ADD15RoundRect,0.250000X-0.250000X0.350000X-0.250000X-0.350000X0.250000X-0.350000X0.250000X0.350000X0*%
%ADD16RoundRect,0.155000X0.155000X-0.212500X0.155000X0.212500X-0.155000X0.212500X-0.155000X-0.212500X0*%
%ADD17RoundRect,0.137500X-0.137500X-0.612500X0.137500X-0.612500X0.137500X0.612500X-0.137500X0.612500X0*%
%ADD18RoundRect,0.125000X-0.625000X-0.125000X0.625000X-0.125000X0.625000X0.125000X-0.625000X0.125000X0*%
%ADD19RoundRect,0.125000X-0.125000X-0.625000X0.125000X-0.625000X0.125000X0.625000X-0.125000X0.625000X0*%
%ADD20RoundRect,0.160000X0.197500X0.160000X-0.197500X0.160000X-0.197500X-0.160000X0.197500X-0.160000X0*%
%ADD21RoundRect,0.139700X-0.139700X0.571500X-0.139700X-0.571500X0.139700X-0.571500X0.139700X0.571500X0*%
%ADD22RoundRect,0.150000X0.425000X-0.150000X0.425000X0.150000X-0.425000X0.150000X-0.425000X-0.150000X0*%
%ADD23RoundRect,0.075000X0.500000X-0.075000X0.500000X0.075000X-0.500000X0.075000X-0.500000X-0.075000X0*%
%ADD24O,2.100000X1.000000*%
%ADD25O,1.800000X1.000000*%
%ADD26RoundRect,0.075000X0.187500X0.075000X-0.187500X0.075000X-0.187500X-0.075000X0.187500X-0.075000X0*%
%ADD27RoundRect,0.075000X0.075000X0.187500X-0.075000X0.187500X-0.075000X-0.187500X0.075000X-0.187500X0*%
%ADD28RoundRect,0.160000X-0.197500X-0.160000X0.197500X-0.160000X0.197500X0.160000X-0.197500X0.160000X0*%
%ADD29RoundRect,0.150000X-0.587500X-0.150000X0.587500X-0.150000X0.587500X0.150000X-0.587500X0.150000X0*%
%ADD30RoundRect,0.250000X0.550000X-1.050000X0.550000X1.050000X-0.550000X1.050000X-0.550000X-1.050000X0*%
G04 APERTURE END LIST*
D10*
%TO.C,R4*%
X150500000Y-95602500D03*
X150500000Y-96797500D03*
%TD*%
D11*
%TO.C,C10*%
X130767500Y-84900000D03*
X129632500Y-84900000D03*
%TD*%
D12*
%TO.C,C12*%
X129629116Y-82598548D03*
X130764116Y-82598548D03*
%TD*%
%TO.C,C1*%
X135532500Y-78500000D03*
X136667500Y-78500000D03*
%TD*%
D13*
%TO.C,C6*%
X142800000Y-93032500D03*
X142800000Y-94167500D03*
%TD*%
D11*
%TO.C,C11*%
X131967500Y-89900000D03*
X130832500Y-89900000D03*
%TD*%
D14*
%TO.C,LED1*%
X148400687Y-95725000D03*
X146600687Y-95725000D03*
X146600687Y-96675000D03*
X148400687Y-96675000D03*
%TD*%
D15*
%TO.C,Y1*%
X130750000Y-86650000D03*
X130750000Y-88350000D03*
X132050000Y-88350000D03*
X132050000Y-86650000D03*
%TD*%
D16*
%TO.C,C7*%
X134100000Y-84967500D03*
X134100000Y-83832500D03*
%TD*%
D17*
%TO.C,SW1*%
X148100000Y-80900000D03*
X151300000Y-80900000D03*
%TD*%
D12*
%TO.C,C5*%
X140432500Y-94600000D03*
X141567500Y-94600000D03*
%TD*%
D11*
%TO.C,C4*%
X144867500Y-78700000D03*
X143732500Y-78700000D03*
%TD*%
D18*
%TO.C,U2*%
X134225000Y-86100000D03*
X134225000Y-86900000D03*
X134225000Y-87700000D03*
X134225000Y-88500000D03*
X134225000Y-89300000D03*
X134225000Y-90100000D03*
X134225000Y-90900000D03*
X134225000Y-91700000D03*
D19*
X135600000Y-93075000D03*
X136400000Y-93075000D03*
X137200000Y-93075000D03*
X138000000Y-93075000D03*
X138800000Y-93075000D03*
X139600000Y-93075000D03*
X140400000Y-93075000D03*
X141200000Y-93075000D03*
D18*
X142575000Y-91700000D03*
X142575000Y-90900000D03*
X142575000Y-90100000D03*
X142575000Y-89300000D03*
X142575000Y-88500000D03*
X142575000Y-87700000D03*
X142575000Y-86900000D03*
X142575000Y-86100000D03*
D19*
X141200000Y-84725000D03*
X140400000Y-84725000D03*
X139600000Y-84725000D03*
X138800000Y-84725000D03*
X138000000Y-84725000D03*
X137200000Y-84725000D03*
X136400000Y-84725000D03*
X135600000Y-84725000D03*
%TD*%
D16*
%TO.C,C2*%
X138800000Y-81967500D03*
X138800000Y-80832500D03*
%TD*%
D20*
%TO.C,R1*%
X144119384Y-98294379D03*
X142924384Y-98294379D03*
%TD*%
%TO.C,R2*%
X144119384Y-97094379D03*
X142924384Y-97094379D03*
%TD*%
D21*
%TO.C,U1*%
X137450001Y-80155600D03*
X136500000Y-80155600D03*
X135549999Y-80155600D03*
X135549999Y-82444400D03*
X137450001Y-82444400D03*
%TD*%
D22*
%TO.C,J1*%
X145320000Y-92200000D03*
X145320000Y-91400000D03*
D23*
X145320000Y-90250000D03*
X145320000Y-89250000D03*
X145320000Y-88750000D03*
X145320000Y-87750000D03*
D22*
X145320000Y-86600000D03*
X145320000Y-85800000D03*
X145320000Y-85800000D03*
X145320000Y-86600000D03*
D23*
X145320000Y-87250000D03*
X145320000Y-88250000D03*
X145320000Y-89750000D03*
X145320000Y-90750000D03*
D22*
X145320000Y-91400000D03*
X145320000Y-92200000D03*
D24*
X145895000Y-93320000D03*
D25*
X150075000Y-93320000D03*
D24*
X145895000Y-84680000D03*
D25*
X150075000Y-84680000D03*
%TD*%
D26*
%TO.C,MT1*%
X138062500Y-97650000D03*
X138062500Y-97150000D03*
X138062500Y-96650000D03*
X138062500Y-96150000D03*
D27*
X137400000Y-95987500D03*
X136900000Y-95987500D03*
X136400000Y-95987500D03*
D26*
X135737500Y-96150000D03*
X135737500Y-96650000D03*
X135737500Y-97150000D03*
X135737500Y-97650000D03*
D27*
X136400000Y-97812500D03*
X136900000Y-97812500D03*
X137400000Y-97812500D03*
%TD*%
D28*
%TO.C,R5*%
X149202500Y-83100000D03*
X150397500Y-83100000D03*
%TD*%
D13*
%TO.C,C9*%
X134500000Y-96032500D03*
X134500000Y-97167500D03*
%TD*%
D20*
%TO.C,R3*%
X130794116Y-83798548D03*
X129599116Y-83798548D03*
%TD*%
D29*
%TO.C,D1*%
X130762500Y-79150000D03*
X130762500Y-81050000D03*
X132637500Y-80100000D03*
%TD*%
D11*
%TO.C,C8*%
X137467500Y-94800000D03*
X136332500Y-94800000D03*
%TD*%
D30*
%TO.C,C3*%
X131400000Y-96600000D03*
X131400000Y-93000000D03*
%TD*%
M02*
