%TF.GenerationSoftware,KiCad,Pcbnew,9.0.0*%
%TF.CreationDate,2025-06-23T18:52:11-04:00*%
%TF.ProjectId,CRSF_PWM_Gyro,43525346-5f50-4574-9d5f-4779726f2e6b,rev?*%
%TF.SameCoordinates,Original*%
%TF.FileFunction,Copper,L1,Top*%
%TF.FilePolarity,Positive*%
%FSLAX46Y46*%
G04 Gerber Fmt 4.6, Leading zero omitted, Abs format (unit mm)*
G04 Created by KiCad (PCBNEW 9.0.0) date 2025-06-23 18:52:11*
%MOMM*%
%LPD*%
G01*
G04 APERTURE LIST*
G04 Aperture macros list*
%AMRoundRect*
0 Rectangle with rounded corners*
0 $1 Rounding radius*
0 $2 $3 $4 $5 $6 $7 $8 $9 X,Y pos of 4 corners*
0 Add a 4 corners polygon primitive as box body*
4,1,4,$2,$3,$4,$5,$6,$7,$8,$9,$2,$3,0*
0 Add four circle primitives for the rounded corners*
1,1,$1+$1,$2,$3*
1,1,$1+$1,$4,$5*
1,1,$1+$1,$6,$7*
1,1,$1+$1,$8,$9*
0 Add four rect primitives between the rounded corners*
20,1,$1+$1,$2,$3,$4,$5,0*
20,1,$1+$1,$4,$5,$6,$7,0*
20,1,$1+$1,$6,$7,$8,$9,0*
20,1,$1+$1,$8,$9,$2,$3,0*%
G04 Aperture macros list end*
%TA.AperFunction,SMDPad,CuDef*%
%ADD10RoundRect,0.160000X-0.160000X0.197500X-0.160000X-0.197500X0.160000X-0.197500X0.160000X0.197500X0*%
%TD*%
%TA.AperFunction,SMDPad,CuDef*%
%ADD11RoundRect,0.155000X0.212500X0.155000X-0.212500X0.155000X-0.212500X-0.155000X0.212500X-0.155000X0*%
%TD*%
%TA.AperFunction,SMDPad,CuDef*%
%ADD12RoundRect,0.155000X-0.212500X-0.155000X0.212500X-0.155000X0.212500X0.155000X-0.212500X0.155000X0*%
%TD*%
%TA.AperFunction,SMDPad,CuDef*%
%ADD13RoundRect,0.155000X-0.155000X0.212500X-0.155000X-0.212500X0.155000X-0.212500X0.155000X0.212500X0*%
%TD*%
%TA.AperFunction,SMDPad,CuDef*%
%ADD14RoundRect,0.150000X-0.450000X-0.150000X0.450000X-0.150000X0.450000X0.150000X-0.450000X0.150000X0*%
%TD*%
%TA.AperFunction,SMDPad,CuDef*%
%ADD15RoundRect,0.250000X-0.250000X0.350000X-0.250000X-0.350000X0.250000X-0.350000X0.250000X0.350000X0*%
%TD*%
%TA.AperFunction,ComponentPad*%
%ADD16R,1.000000X1.000000*%
%TD*%
%TA.AperFunction,ComponentPad*%
%ADD17O,1.000000X1.000000*%
%TD*%
%TA.AperFunction,SMDPad,CuDef*%
%ADD18RoundRect,0.155000X0.155000X-0.212500X0.155000X0.212500X-0.155000X0.212500X-0.155000X-0.212500X0*%
%TD*%
%TA.AperFunction,ComponentPad*%
%ADD19R,1.700000X1.700000*%
%TD*%
%TA.AperFunction,ComponentPad*%
%ADD20O,1.700000X1.700000*%
%TD*%
%TA.AperFunction,SMDPad,CuDef*%
%ADD21RoundRect,0.137500X-0.137500X-0.612500X0.137500X-0.612500X0.137500X0.612500X-0.137500X0.612500X0*%
%TD*%
%TA.AperFunction,SMDPad,CuDef*%
%ADD22RoundRect,0.125000X-0.625000X-0.125000X0.625000X-0.125000X0.625000X0.125000X-0.625000X0.125000X0*%
%TD*%
%TA.AperFunction,SMDPad,CuDef*%
%ADD23RoundRect,0.125000X-0.125000X-0.625000X0.125000X-0.625000X0.125000X0.625000X-0.125000X0.625000X0*%
%TD*%
%TA.AperFunction,SMDPad,CuDef*%
%ADD24RoundRect,0.160000X0.197500X0.160000X-0.197500X0.160000X-0.197500X-0.160000X0.197500X-0.160000X0*%
%TD*%
%TA.AperFunction,SMDPad,CuDef*%
%ADD25RoundRect,0.139700X-0.139700X0.571500X-0.139700X-0.571500X0.139700X-0.571500X0.139700X0.571500X0*%
%TD*%
%TA.AperFunction,SMDPad,CuDef*%
%ADD26RoundRect,0.150000X0.425000X-0.150000X0.425000X0.150000X-0.425000X0.150000X-0.425000X-0.150000X0*%
%TD*%
%TA.AperFunction,SMDPad,CuDef*%
%ADD27RoundRect,0.075000X0.500000X-0.075000X0.500000X0.075000X-0.500000X0.075000X-0.500000X-0.075000X0*%
%TD*%
%TA.AperFunction,HeatsinkPad*%
%ADD28O,2.100000X1.000000*%
%TD*%
%TA.AperFunction,HeatsinkPad*%
%ADD29O,1.800000X1.000000*%
%TD*%
%TA.AperFunction,SMDPad,CuDef*%
%ADD30RoundRect,0.075000X0.187500X0.075000X-0.187500X0.075000X-0.187500X-0.075000X0.187500X-0.075000X0*%
%TD*%
%TA.AperFunction,SMDPad,CuDef*%
%ADD31RoundRect,0.075000X0.075000X0.187500X-0.075000X0.187500X-0.075000X-0.187500X0.075000X-0.187500X0*%
%TD*%
%TA.AperFunction,SMDPad,CuDef*%
%ADD32RoundRect,0.160000X-0.197500X-0.160000X0.197500X-0.160000X0.197500X0.160000X-0.197500X0.160000X0*%
%TD*%
%TA.AperFunction,SMDPad,CuDef*%
%ADD33RoundRect,0.150000X-0.587500X-0.150000X0.587500X-0.150000X0.587500X0.150000X-0.587500X0.150000X0*%
%TD*%
%TA.AperFunction,SMDPad,CuDef*%
%ADD34RoundRect,0.250000X0.550000X-1.050000X0.550000X1.050000X-0.550000X1.050000X-0.550000X-1.050000X0*%
%TD*%
%TA.AperFunction,ViaPad*%
%ADD35C,0.600000*%
%TD*%
%TA.AperFunction,Conductor*%
%ADD36C,0.300000*%
%TD*%
%TA.AperFunction,Conductor*%
%ADD37C,0.200000*%
%TD*%
%TA.AperFunction,Conductor*%
%ADD38C,0.500000*%
%TD*%
G04 APERTURE END LIST*
D10*
%TO.P,R4,1*%
%TO.N,+3.3V*%
X150500000Y-95602500D03*
%TO.P,R4,2*%
%TO.N,Net-(LED1-A2)*%
X150500000Y-96797500D03*
%TD*%
D11*
%TO.P,C10,1*%
%TO.N,Net-(U2-PF0)*%
X130767500Y-84900000D03*
%TO.P,C10,2*%
%TO.N,GND*%
X129632500Y-84900000D03*
%TD*%
D12*
%TO.P,C12,1*%
%TO.N,N_RESET*%
X129629116Y-82598548D03*
%TO.P,C12,2*%
%TO.N,GND*%
X130764116Y-82598548D03*
%TD*%
%TO.P,C1,1*%
%TO.N,Net-(D1-K)*%
X135532500Y-78500000D03*
%TO.P,C1,2*%
%TO.N,GND*%
X136667500Y-78500000D03*
%TD*%
D13*
%TO.P,C6,1*%
%TO.N,+3.3V*%
X142800000Y-93032500D03*
%TO.P,C6,2*%
%TO.N,GND*%
X142800000Y-94167500D03*
%TD*%
D11*
%TO.P,C11,1*%
%TO.N,Net-(U2-PF1)*%
X131967500Y-89900000D03*
%TO.P,C11,2*%
%TO.N,GND*%
X130832500Y-89900000D03*
%TD*%
D14*
%TO.P,LED1,1,A1*%
%TO.N,+3.3V*%
X148400687Y-95725000D03*
%TO.P,LED1,2,K1*%
%TO.N,STATUS_LED_BLUE*%
X146600687Y-95725000D03*
%TO.P,LED1,3,K2*%
%TO.N,STATUS_LED_RED*%
X146600687Y-96675000D03*
%TO.P,LED1,4,A2*%
%TO.N,Net-(LED1-A2)*%
X148400687Y-96675000D03*
%TD*%
D15*
%TO.P,Y1,1,1*%
%TO.N,Net-(U2-PF0)*%
X130750000Y-86650000D03*
%TO.P,Y1,2,2*%
%TO.N,GND*%
X130750000Y-88350000D03*
%TO.P,Y1,3,3*%
%TO.N,Net-(U2-PF1)*%
X132050000Y-88350000D03*
%TO.P,Y1,4,4*%
%TO.N,GND*%
X132050000Y-86650000D03*
%TD*%
D16*
%TO.P,SWD1,1,Pin_1*%
%TO.N,+3.3V*%
X145850000Y-80775000D03*
D17*
%TO.P,SWD1,2,Pin_2*%
%TO.N,SWD_DIO*%
X145850000Y-82045000D03*
%TO.P,SWD1,3,Pin_3*%
%TO.N,GND*%
X144580000Y-80775000D03*
%TO.P,SWD1,4,Pin_4*%
%TO.N,SWD_CLK*%
X144580000Y-82045000D03*
%TO.P,SWD1,5,Pin_5*%
%TO.N,GND*%
X143310000Y-80775000D03*
%TO.P,SWD1,6,Pin_6*%
%TO.N,SWD_SWO*%
X143310000Y-82045000D03*
%TO.P,SWD1,7,Pin_7*%
%TO.N,unconnected-(SWD1-Pin_7-Pad7)*%
X142040000Y-80775000D03*
%TO.P,SWD1,8,Pin_8*%
%TO.N,unconnected-(SWD1-Pin_8-Pad8)*%
X142040000Y-82045000D03*
%TO.P,SWD1,9,Pin_9*%
%TO.N,GND*%
X140770000Y-80775000D03*
%TO.P,SWD1,10,Pin_10*%
%TO.N,N_RESET*%
X140770000Y-82045000D03*
%TD*%
D18*
%TO.P,C7,1*%
%TO.N,+3.3V*%
X134100000Y-84967500D03*
%TO.P,C7,2*%
%TO.N,GND*%
X134100000Y-83832500D03*
%TD*%
D19*
%TO.P,J2,1,Pin_1*%
%TO.N,GND*%
X121863000Y-80880000D03*
D20*
%TO.P,J2,2,Pin_2*%
%TO.N,V_ESC*%
X124403000Y-80880000D03*
%TO.P,J2,3,Pin_3*%
%TO.N,CRSF_RX_To_MCU*%
X126943000Y-80880000D03*
%TO.P,J2,4,Pin_4*%
%TO.N,GND*%
X121863000Y-83420000D03*
%TO.P,J2,5,Pin_5*%
%TO.N,V_ESC*%
X124403000Y-83420000D03*
%TO.P,J2,6,Pin_6*%
%TO.N,CH1_PWM*%
X126943000Y-83420000D03*
%TO.P,J2,7,Pin_7*%
%TO.N,GND*%
X121863000Y-85960000D03*
%TO.P,J2,8,Pin_8*%
%TO.N,V_ESC*%
X124403000Y-85960000D03*
%TO.P,J2,9,Pin_9*%
%TO.N,CH2_PWM*%
X126943000Y-85960000D03*
%TO.P,J2,10,Pin_10*%
%TO.N,GND*%
X121863000Y-88500000D03*
%TO.P,J2,11,Pin_11*%
%TO.N,V_ESC*%
X124403000Y-88500000D03*
%TO.P,J2,12,Pin_12*%
%TO.N,CH3_PWM*%
X126943000Y-88500000D03*
%TO.P,J2,13,Pin_13*%
%TO.N,GND*%
X121863000Y-91040000D03*
%TO.P,J2,14,Pin_14*%
%TO.N,V_ESC*%
X124403000Y-91040000D03*
%TO.P,J2,15,Pin_15*%
%TO.N,CH4_PWM*%
X126943000Y-91040000D03*
%TO.P,J2,16,Pin_16*%
%TO.N,GND*%
X121863000Y-93580000D03*
%TO.P,J2,17,Pin_17*%
%TO.N,V_ESC*%
X124403000Y-93580000D03*
%TO.P,J2,18,Pin_18*%
%TO.N,CH5_PWM*%
X126943000Y-93580000D03*
%TO.P,J2,19,Pin_19*%
%TO.N,GND*%
X121863000Y-96120000D03*
%TO.P,J2,20,Pin_20*%
%TO.N,V_ESC*%
X124403000Y-96120000D03*
%TO.P,J2,21,Pin_21*%
%TO.N,CH6_PWM*%
X126943000Y-96120000D03*
%TD*%
D21*
%TO.P,SW1,1,A*%
%TO.N,Net-(SW1-A)*%
X148100000Y-80900000D03*
%TO.P,SW1,2,B*%
%TO.N,+3.3V*%
X151300000Y-80900000D03*
%TD*%
D12*
%TO.P,C5,1*%
%TO.N,+3.3V*%
X140432500Y-94600000D03*
%TO.P,C5,2*%
%TO.N,GND*%
X141567500Y-94600000D03*
%TD*%
D11*
%TO.P,C4,1*%
%TO.N,+3.3V*%
X144867500Y-78700000D03*
%TO.P,C4,2*%
%TO.N,GND*%
X143732500Y-78700000D03*
%TD*%
D22*
%TO.P,U2,1,VDD*%
%TO.N,+3.3V*%
X134225000Y-86100000D03*
%TO.P,U2,2,PF0*%
%TO.N,Net-(U2-PF0)*%
X134225000Y-86900000D03*
%TO.P,U2,3,PF1*%
%TO.N,Net-(U2-PF1)*%
X134225000Y-87700000D03*
%TO.P,U2,4,PG10*%
%TO.N,N_RESET*%
X134225000Y-88500000D03*
%TO.P,U2,5,PA0*%
%TO.N,CH3_PWM*%
X134225000Y-89300000D03*
%TO.P,U2,6,PA1*%
%TO.N,CH4_PWM*%
X134225000Y-90100000D03*
%TO.P,U2,7,PA2*%
%TO.N,CH5_PWM*%
X134225000Y-90900000D03*
%TO.P,U2,8,PA3*%
%TO.N,CH6_PWM*%
X134225000Y-91700000D03*
D23*
%TO.P,U2,9,PA4*%
%TO.N,Net-(MT1-AP_CS)*%
X135600000Y-93075000D03*
%TO.P,U2,10,PA5*%
%TO.N,Net-(MT1-AP_SCL{slash}AP_SCLK)*%
X136400000Y-93075000D03*
%TO.P,U2,11,PA6*%
%TO.N,Net-(MT1-AP_SDO{slash}AP_AD0)*%
X137200000Y-93075000D03*
%TO.P,U2,12,PA7*%
%TO.N,Net-(MT1-AP_SDA{slash}AP_SDIO{slash}AP_SDI)*%
X138000000Y-93075000D03*
%TO.P,U2,13,PB0*%
%TO.N,IMU_INT*%
X138800000Y-93075000D03*
%TO.P,U2,14,VSSA*%
%TO.N,GND*%
X139600000Y-93075000D03*
%TO.P,U2,15,VDDA*%
%TO.N,+3.3V*%
X140400000Y-93075000D03*
%TO.P,U2,16,VSS*%
%TO.N,GND*%
X141200000Y-93075000D03*
D22*
%TO.P,U2,17,VDD*%
%TO.N,+3.3V*%
X142575000Y-91700000D03*
%TO.P,U2,18,PA8*%
%TO.N,unconnected-(U2-PA8-Pad18)*%
X142575000Y-90900000D03*
%TO.P,U2,19,PA9*%
%TO.N,unconnected-(U2-PA9-Pad19)*%
X142575000Y-90100000D03*
%TO.P,U2,20,PA10*%
%TO.N,CRSF_RX_To_MCU*%
X142575000Y-89300000D03*
%TO.P,U2,21,PA11*%
%TO.N,USB_D-*%
X142575000Y-88500000D03*
%TO.P,U2,22,PA12*%
%TO.N,USB_D+*%
X142575000Y-87700000D03*
%TO.P,U2,23,PA13*%
%TO.N,SWD_DIO*%
X142575000Y-86900000D03*
%TO.P,U2,24,PA14*%
%TO.N,SWD_CLK*%
X142575000Y-86100000D03*
D23*
%TO.P,U2,25,PA15*%
%TO.N,unconnected-(U2-PA15-Pad25)*%
X141200000Y-84725000D03*
%TO.P,U2,26,PB3*%
%TO.N,SWD_SWO*%
X140400000Y-84725000D03*
%TO.P,U2,27,PB4*%
%TO.N,STATUS_LED_BLUE*%
X139600000Y-84725000D03*
%TO.P,U2,28,PB5*%
%TO.N,STATUS_LED_RED*%
X138800000Y-84725000D03*
%TO.P,U2,29,PB6*%
%TO.N,CH2_PWM*%
X138000000Y-84725000D03*
%TO.P,U2,30,PB7*%
%TO.N,CH1_PWM*%
X137200000Y-84725000D03*
%TO.P,U2,31,PB8*%
%TO.N,Net-(SW1-A)*%
X136400000Y-84725000D03*
%TO.P,U2,32,VSS*%
%TO.N,GND*%
X135600000Y-84725000D03*
%TD*%
D18*
%TO.P,C2,1*%
%TO.N,+3.3V*%
X138800000Y-81967500D03*
%TO.P,C2,2*%
%TO.N,GND*%
X138800000Y-80832500D03*
%TD*%
D24*
%TO.P,R1,1*%
%TO.N,Net-(J1-CC1)*%
X144119384Y-98294379D03*
%TO.P,R1,2*%
%TO.N,GND*%
X142924384Y-98294379D03*
%TD*%
%TO.P,R2,1*%
%TO.N,Net-(J1-CC2)*%
X144119384Y-97094379D03*
%TO.P,R2,2*%
%TO.N,GND*%
X142924384Y-97094379D03*
%TD*%
D25*
%TO.P,U1,1,VIN*%
%TO.N,Net-(D1-K)*%
X137450001Y-80155600D03*
%TO.P,U1,2,GND*%
%TO.N,GND*%
X136500000Y-80155600D03*
%TO.P,U1,3,CONTROL*%
%TO.N,Net-(D1-K)*%
X135549999Y-80155600D03*
%TO.P,U1,4,NC*%
%TO.N,unconnected-(U1-NC-Pad4)*%
X135549999Y-82444400D03*
%TO.P,U1,5,VOUT*%
%TO.N,+3.3V*%
X137450001Y-82444400D03*
%TD*%
D26*
%TO.P,J1,A1,GND*%
%TO.N,GND*%
X145320000Y-92200000D03*
%TO.P,J1,A4,VBUS*%
%TO.N,Net-(D1-A-Pad2)*%
X145320000Y-91400000D03*
D27*
%TO.P,J1,A5,CC1*%
%TO.N,Net-(J1-CC1)*%
X145320000Y-90250000D03*
%TO.P,J1,A6,D+*%
%TO.N,USB_D+*%
X145320000Y-89250000D03*
%TO.P,J1,A7,D-*%
%TO.N,USB_D-*%
X145320000Y-88750000D03*
%TO.P,J1,A8,SBU1*%
%TO.N,unconnected-(J1-SBU1-PadA8)*%
X145320000Y-87750000D03*
D26*
%TO.P,J1,A9,VBUS*%
%TO.N,Net-(D1-A-Pad2)*%
X145320000Y-86600000D03*
%TO.P,J1,A12,GND*%
%TO.N,GND*%
X145320000Y-85800000D03*
%TO.P,J1,B1,GND*%
X145320000Y-85800000D03*
%TO.P,J1,B4,VBUS*%
%TO.N,Net-(D1-A-Pad2)*%
X145320000Y-86600000D03*
D27*
%TO.P,J1,B5,CC2*%
%TO.N,Net-(J1-CC2)*%
X145320000Y-87250000D03*
%TO.P,J1,B6,D+*%
%TO.N,USB_D+*%
X145320000Y-88250000D03*
%TO.P,J1,B7,D-*%
%TO.N,USB_D-*%
X145320000Y-89750000D03*
%TO.P,J1,B8,SBU2*%
%TO.N,unconnected-(J1-SBU2-PadB8)*%
X145320000Y-90750000D03*
D26*
%TO.P,J1,B9,VBUS*%
%TO.N,Net-(D1-A-Pad2)*%
X145320000Y-91400000D03*
%TO.P,J1,B12,GND*%
%TO.N,GND*%
X145320000Y-92200000D03*
D28*
%TO.P,J1,S1,SHIELD*%
X145895000Y-93320000D03*
D29*
X150075000Y-93320000D03*
D28*
X145895000Y-84680000D03*
D29*
X150075000Y-84680000D03*
%TD*%
D30*
%TO.P,MT1,1,AP_SDO/AP_AD0*%
%TO.N,Net-(MT1-AP_SDO{slash}AP_AD0)*%
X138062500Y-97650000D03*
%TO.P,MT1,2,RESV*%
%TO.N,GND*%
X138062500Y-97150000D03*
%TO.P,MT1,3,RESV__1*%
X138062500Y-96650000D03*
%TO.P,MT1,4,INT1/INT*%
%TO.N,IMU_INT*%
X138062500Y-96150000D03*
D31*
%TO.P,MT1,5,VDDIO*%
%TO.N,+3.3V*%
X137400000Y-95987500D03*
%TO.P,MT1,6,GND*%
%TO.N,GND*%
X136900000Y-95987500D03*
%TO.P,MT1,7,RESV__2*%
X136400000Y-95987500D03*
D30*
%TO.P,MT1,8,VDD*%
%TO.N,+3.3V*%
X135737500Y-96150000D03*
%TO.P,MT1,9,INT2/FSYNC*%
%TO.N,GND*%
X135737500Y-96650000D03*
%TO.P,MT1,10,RESV__3*%
X135737500Y-97150000D03*
%TO.P,MT1,11,RESV__4*%
X135737500Y-97650000D03*
D31*
%TO.P,MT1,12,AP_CS*%
%TO.N,Net-(MT1-AP_CS)*%
X136400000Y-97812500D03*
%TO.P,MT1,13,AP_SCL/AP_SCLK*%
%TO.N,Net-(MT1-AP_SCL{slash}AP_SCLK)*%
X136900000Y-97812500D03*
%TO.P,MT1,14,AP_SDA/AP_SDIO/AP_SDI*%
%TO.N,Net-(MT1-AP_SDA{slash}AP_SDIO{slash}AP_SDI)*%
X137400000Y-97812500D03*
%TD*%
D32*
%TO.P,R5,1*%
%TO.N,Net-(SW1-A)*%
X149202500Y-83100000D03*
%TO.P,R5,2*%
%TO.N,GND*%
X150397500Y-83100000D03*
%TD*%
D13*
%TO.P,C9,1*%
%TO.N,+3.3V*%
X134500000Y-96032500D03*
%TO.P,C9,2*%
%TO.N,GND*%
X134500000Y-97167500D03*
%TD*%
D24*
%TO.P,R3,1*%
%TO.N,+3.3V*%
X130794116Y-83798548D03*
%TO.P,R3,2*%
%TO.N,N_RESET*%
X129599116Y-83798548D03*
%TD*%
D33*
%TO.P,D1,1,A*%
%TO.N,V_ESC*%
X130762500Y-79150000D03*
%TO.P,D1,2,A*%
%TO.N,Net-(D1-A-Pad2)*%
X130762500Y-81050000D03*
%TO.P,D1,3,K*%
%TO.N,Net-(D1-K)*%
X132637500Y-80100000D03*
%TD*%
D11*
%TO.P,C8,1*%
%TO.N,+3.3V*%
X137467500Y-94800000D03*
%TO.P,C8,2*%
%TO.N,GND*%
X136332500Y-94800000D03*
%TD*%
D34*
%TO.P,C3,1*%
%TO.N,V_ESC*%
X131400000Y-96600000D03*
%TO.P,C3,2*%
%TO.N,GND*%
X131400000Y-93000000D03*
%TD*%
D35*
%TO.N,+3.3V*%
X142000000Y-93000000D03*
X140400000Y-95500000D03*
X131700000Y-83798548D03*
X133700000Y-96000000D03*
X145800000Y-78700000D03*
X139600000Y-82000000D03*
X138400000Y-94800000D03*
X150500000Y-94600000D03*
X150300000Y-80900000D03*
%TO.N,GND*%
X133700000Y-97200000D03*
X142100000Y-98300000D03*
X129600000Y-89700000D03*
X130600000Y-90800000D03*
X137600000Y-78500000D03*
X134100000Y-82900000D03*
X132700000Y-93600000D03*
X151300000Y-83100000D03*
X129600000Y-88500000D03*
X129600000Y-87300000D03*
X141600000Y-95500000D03*
X130100000Y-92400000D03*
X130100000Y-93600000D03*
X135400000Y-94800000D03*
X142100000Y-97100000D03*
X132700000Y-92400000D03*
X139562133Y-94338618D03*
X129600000Y-86100000D03*
X142900000Y-78700000D03*
X142800000Y-95100000D03*
X139000001Y-96695436D03*
X138800000Y-79900000D03*
X132824151Y-87456609D03*
X132000000Y-85600000D03*
%TO.N,N_RESET*%
X135500000Y-88500000D03*
X134100000Y-81900000D03*
X138400000Y-83200000D03*
%TO.N,CRSF_RX_To_MCU*%
X137600000Y-87800000D03*
%TO.N,Net-(J1-CC2)*%
X149300000Y-97600000D03*
X150100000Y-89000000D03*
%TO.N,CH2_PWM*%
X136700000Y-87500000D03*
%TO.N,CH4_PWM*%
X133000000Y-90100000D03*
%TO.N,CH6_PWM*%
X134200000Y-92500000D03*
%TO.N,CH5_PWM*%
X133000000Y-90900000D03*
%TO.N,CH1_PWM*%
X136700000Y-86500000D03*
%TO.N,CH3_PWM*%
X133000000Y-89300000D03*
%TO.N,Net-(MT1-AP_SDA{slash}AP_SDIO{slash}AP_SDI)*%
X138000000Y-91800000D03*
X139601000Y-95700000D03*
%TO.N,Net-(MT1-AP_SCL{slash}AP_SCLK)*%
X136400000Y-91800000D03*
X136900000Y-96900000D03*
%TO.N,Net-(MT1-AP_SDO{slash}AP_AD0)*%
X137200000Y-91800000D03*
X139000000Y-97700000D03*
%TO.N,Net-(SW1-A)*%
X146800000Y-83300000D03*
X140300000Y-89900000D03*
%TO.N,STATUS_LED_BLUE*%
X145500000Y-95725000D03*
X141200000Y-87700000D03*
%TO.N,STATUS_LED_RED*%
X141200000Y-88500000D03*
X145500000Y-96675000D03*
%TO.N,SWD_SWO*%
X141955000Y-83400000D03*
%TO.N,Net-(D1-A-Pad2)*%
X144100000Y-87300000D03*
X148200000Y-90900000D03*
X134300000Y-81100000D03*
%TD*%
D36*
%TO.N,+3.3V*%
X135082500Y-96032500D02*
X135200000Y-96150000D01*
X149598187Y-95602500D02*
X150500000Y-95602500D01*
X134100000Y-84967500D02*
X134100000Y-85975000D01*
X149475687Y-95725000D02*
X149598187Y-95602500D01*
X145850000Y-80150000D02*
X145850000Y-80775000D01*
X134500000Y-96032500D02*
X133732500Y-96032500D01*
X140400000Y-94567500D02*
X140432500Y-94600000D01*
X135200000Y-96150000D02*
X135737500Y-96150000D01*
X142032500Y-93032500D02*
X142000000Y-93000000D01*
X133467500Y-84967500D02*
X134100000Y-84967500D01*
X148400687Y-95725000D02*
X149475687Y-95725000D01*
X138800000Y-81967500D02*
X139567500Y-81967500D01*
X139567500Y-81967500D02*
X139600000Y-82000000D01*
X137450001Y-82444400D02*
X137955600Y-82444400D01*
X134500000Y-96032500D02*
X135082500Y-96032500D01*
X140400000Y-93075000D02*
X140400000Y-94567500D01*
X144867500Y-79167500D02*
X145850000Y-80150000D01*
X142800000Y-93032500D02*
X142032500Y-93032500D01*
X131700000Y-83798548D02*
X132298548Y-83798548D01*
X137467500Y-94800000D02*
X138400000Y-94800000D01*
X151300000Y-80900000D02*
X150300000Y-80900000D01*
X132298548Y-83798548D02*
X133467500Y-84967500D01*
X150500000Y-94600000D02*
X150500000Y-95602500D01*
X142800000Y-91925000D02*
X142575000Y-91700000D01*
X142800000Y-93032500D02*
X142800000Y-91925000D01*
X133732500Y-96032500D02*
X133700000Y-96000000D01*
X144867500Y-78700000D02*
X144867500Y-79167500D01*
X140400000Y-94632500D02*
X140432500Y-94600000D01*
X140400000Y-93075000D02*
X140432500Y-93107500D01*
X137467500Y-94800000D02*
X137467500Y-95920000D01*
X137467500Y-95920000D02*
X137400000Y-95987500D01*
D37*
X130794116Y-83798548D02*
X131700000Y-83798548D01*
D36*
X138432500Y-81967500D02*
X138800000Y-81967500D01*
X134100000Y-85975000D02*
X134225000Y-86100000D01*
X137955600Y-82444400D02*
X138432500Y-81967500D01*
X144867500Y-78700000D02*
X145800000Y-78700000D01*
X140400000Y-95500000D02*
X140400000Y-94632500D01*
%TO.N,GND*%
X136667500Y-79032500D02*
X136500000Y-79200000D01*
D37*
X142100000Y-97100000D02*
X142918763Y-97100000D01*
X142100000Y-98300000D02*
X142918763Y-98300000D01*
D36*
X136667500Y-78500000D02*
X137600000Y-78500000D01*
D37*
X130764116Y-82598548D02*
X130788297Y-82622729D01*
D36*
X134800000Y-84400000D02*
X135125000Y-84725000D01*
X130750000Y-89817500D02*
X130832500Y-89900000D01*
X134500000Y-97167500D02*
X133732500Y-97167500D01*
D37*
X133800000Y-82600000D02*
X134100000Y-82900000D01*
D36*
X134532500Y-83832500D02*
X134800000Y-84100000D01*
X136332500Y-94800000D02*
X135400000Y-94800000D01*
X143732500Y-78700000D02*
X142900000Y-78700000D01*
X130750000Y-88350000D02*
X130750000Y-89817500D01*
X134800000Y-84100000D02*
X134800000Y-84400000D01*
X135125000Y-84725000D02*
X135600000Y-84725000D01*
X130600000Y-90765000D02*
X130832500Y-90532500D01*
X151300000Y-83100000D02*
X150397500Y-83100000D01*
X134100000Y-83832500D02*
X134100000Y-82900000D01*
X141567500Y-95467500D02*
X141600000Y-95500000D01*
X141200000Y-93075000D02*
X141200000Y-94232500D01*
D37*
X142918763Y-98300000D02*
X142924384Y-98294379D01*
X130874434Y-82622729D02*
X130897163Y-82600000D01*
D36*
X141200000Y-94232500D02*
X141567500Y-94600000D01*
X139600000Y-94300751D02*
X139600000Y-93075000D01*
X136667500Y-78500000D02*
X136667500Y-79032500D01*
D37*
X130897163Y-82600000D02*
X133800000Y-82600000D01*
D36*
X139562133Y-94338618D02*
X139600000Y-94300751D01*
X134100000Y-83832500D02*
X134532500Y-83832500D01*
X133732500Y-97167500D02*
X133700000Y-97200000D01*
X142800000Y-94167500D02*
X142800000Y-95100000D01*
X130832500Y-90532500D02*
X130832500Y-89900000D01*
X141567500Y-94600000D02*
X141567500Y-95467500D01*
X136500000Y-79200000D02*
X136500000Y-80155600D01*
X138800000Y-80832500D02*
X138800000Y-79900000D01*
D37*
X130788297Y-82622729D02*
X130874434Y-82622729D01*
D36*
X130600000Y-90800000D02*
X130600000Y-90765000D01*
X129600000Y-86100000D02*
X129632500Y-86067500D01*
D37*
X142918763Y-97100000D02*
X142924384Y-97094379D01*
D36*
X129632500Y-86067500D02*
X129632500Y-84900000D01*
D38*
%TO.N,V_ESC*%
X130762500Y-79150000D02*
X125300000Y-79150000D01*
D36*
%TO.N,Net-(D1-K)*%
X135494399Y-80100000D02*
X135549999Y-80155600D01*
X137450001Y-80155600D02*
X137450001Y-80866800D01*
X135532500Y-78500000D02*
X135532500Y-80138101D01*
X132637500Y-80100000D02*
X135494399Y-80100000D01*
X135549999Y-80866799D02*
X135549999Y-80155600D01*
X136999001Y-81317800D02*
X136001000Y-81317800D01*
X135532500Y-80138101D02*
X135549999Y-80155600D01*
X137450001Y-80866800D02*
X136999001Y-81317800D01*
X136001000Y-81317800D02*
X135549999Y-80866799D01*
D37*
%TO.N,N_RESET*%
X129900000Y-81900000D02*
X129629116Y-82170884D01*
X129629116Y-82170884D02*
X129629116Y-82598548D01*
X140755000Y-82045000D02*
X140770000Y-82045000D01*
X134100000Y-81900000D02*
X129900000Y-81900000D01*
X129629116Y-83768548D02*
X129599116Y-83798548D01*
X139600000Y-83200000D02*
X140755000Y-82045000D01*
X129629116Y-82598548D02*
X129629116Y-83768548D01*
X135500000Y-88500000D02*
X134225000Y-88500000D01*
X138400000Y-83200000D02*
X139600000Y-83200000D01*
D36*
%TO.N,Net-(U2-PF0)*%
X133124000Y-85624000D02*
X133124000Y-86425630D01*
X130750000Y-85017500D02*
X130767500Y-85000000D01*
X130767500Y-84900000D02*
X132400000Y-84900000D01*
X133124000Y-86425630D02*
X133598370Y-86900000D01*
X130767500Y-85000000D02*
X130767500Y-84900000D01*
X132400000Y-84900000D02*
X133124000Y-85624000D01*
X130750000Y-86650000D02*
X130750000Y-85017500D01*
X133598370Y-86900000D02*
X134225000Y-86900000D01*
%TO.N,Net-(U2-PF1)*%
X132050000Y-88350000D02*
X132050000Y-89817500D01*
X132850000Y-88350000D02*
X133500000Y-87700000D01*
X132050000Y-89817500D02*
X131967500Y-89900000D01*
X133500000Y-87700000D02*
X134225000Y-87700000D01*
X132050000Y-88350000D02*
X132850000Y-88350000D01*
D37*
%TO.N,CRSF_RX_To_MCU*%
X139100000Y-89300000D02*
X142575000Y-89300000D01*
X137600000Y-87800000D02*
X139100000Y-89300000D01*
%TO.N,Net-(J1-CC1)*%
X151000000Y-98300000D02*
X151500000Y-97800000D01*
X150050000Y-90250000D02*
X145320000Y-90250000D01*
X144125005Y-98300000D02*
X151000000Y-98300000D01*
X151500000Y-97800000D02*
X151500000Y-91700000D01*
X144119384Y-98294379D02*
X144125005Y-98300000D01*
X151500000Y-91700000D02*
X150050000Y-90250000D01*
%TO.N,USB_D-*%
X143606802Y-88325000D02*
X144006802Y-88725000D01*
X142575000Y-88500000D02*
X143075000Y-88500000D01*
X144457499Y-88750000D02*
X145320000Y-88750000D01*
X144006802Y-89406802D02*
X144006802Y-88725000D01*
X144432499Y-88725000D02*
X144457499Y-88750000D01*
X143075000Y-88500000D02*
X143250000Y-88325000D01*
X145320000Y-89750000D02*
X144350000Y-89750000D01*
X143250000Y-88325000D02*
X143606802Y-88325000D01*
X144006802Y-88725000D02*
X144432499Y-88725000D01*
X144350000Y-89750000D02*
X144006802Y-89406802D01*
%TO.N,Net-(J1-CC2)*%
X150100000Y-87800000D02*
X149550000Y-87250000D01*
X144700000Y-97100000D02*
X144125005Y-97100000D01*
X150100000Y-89000000D02*
X150100000Y-87800000D01*
X149550000Y-87250000D02*
X145320000Y-87250000D01*
X144125005Y-97100000D02*
X144119384Y-97094379D01*
X145200000Y-97600000D02*
X144700000Y-97100000D01*
X149300000Y-97600000D02*
X145200000Y-97600000D01*
%TO.N,USB_D+*%
X142575000Y-87700000D02*
X143075000Y-87700000D01*
X146026824Y-89250000D02*
X145320000Y-89250000D01*
X145928824Y-88250000D02*
X146196000Y-88517176D01*
X143793198Y-87875000D02*
X144193198Y-88275000D01*
X143075000Y-87700000D02*
X143250000Y-87875000D01*
X144432499Y-88275000D02*
X144457499Y-88250000D01*
X144457499Y-88250000D02*
X145320000Y-88250000D01*
X144193198Y-88275000D02*
X144432499Y-88275000D01*
X143250000Y-87875000D02*
X143793198Y-87875000D01*
X145320000Y-88250000D02*
X145928824Y-88250000D01*
X146196000Y-89080824D02*
X146026824Y-89250000D01*
X146196000Y-88517176D02*
X146196000Y-89080824D01*
%TO.N,CH2_PWM*%
X137400000Y-86800000D02*
X137800000Y-86800000D01*
X136700000Y-87500000D02*
X137400000Y-86800000D01*
X137800000Y-86800000D02*
X138000000Y-86600000D01*
X138000000Y-86600000D02*
X138000000Y-84725000D01*
%TO.N,CH4_PWM*%
X134225000Y-90100000D02*
X133000000Y-90100000D01*
%TO.N,CH6_PWM*%
X134200000Y-92500000D02*
X134200000Y-91725000D01*
X134200000Y-91725000D02*
X134225000Y-91700000D01*
%TO.N,CH5_PWM*%
X134225000Y-90900000D02*
X133000000Y-90900000D01*
%TO.N,CH1_PWM*%
X137200000Y-86000000D02*
X137200000Y-84725000D01*
X136700000Y-86500000D02*
X137200000Y-86000000D01*
%TO.N,CH3_PWM*%
X134225000Y-89300000D02*
X133000000Y-89300000D01*
%TO.N,Net-(MT1-AP_CS)*%
X134925000Y-93075000D02*
X135600000Y-93075000D01*
X136400000Y-97812500D02*
X136400000Y-98200000D01*
X136100000Y-98500000D02*
X133600000Y-98500000D01*
X132900000Y-97800000D02*
X132900000Y-95100000D01*
X132900000Y-95100000D02*
X134925000Y-93075000D01*
X133600000Y-98500000D02*
X132900000Y-97800000D01*
X136400000Y-98200000D02*
X136100000Y-98500000D01*
%TO.N,IMU_INT*%
X138800000Y-94350057D02*
X139001000Y-94551057D01*
X138650000Y-96150000D02*
X138062500Y-96150000D01*
X138800000Y-93075000D02*
X138800000Y-94350057D01*
X139001000Y-94551057D02*
X139001000Y-95799000D01*
X139001000Y-95799000D02*
X138650000Y-96150000D01*
%TO.N,Net-(MT1-AP_SDA{slash}AP_SDIO{slash}AP_SDI)*%
X137400000Y-98200000D02*
X137400000Y-97812500D01*
X137700000Y-98500000D02*
X137400000Y-98200000D01*
X139601000Y-95700000D02*
X139600000Y-95701000D01*
X139600000Y-98000000D02*
X139100000Y-98500000D01*
X138000000Y-91800000D02*
X138000000Y-93075000D01*
X139600000Y-95701000D02*
X139600000Y-98000000D01*
X139100000Y-98500000D02*
X137700000Y-98500000D01*
%TO.N,Net-(MT1-AP_SCL{slash}AP_SCLK)*%
X136900000Y-96900000D02*
X136900000Y-97812500D01*
X136400000Y-91800000D02*
X136400000Y-93075000D01*
%TO.N,Net-(MT1-AP_SDO{slash}AP_AD0)*%
X138950000Y-97650000D02*
X138062500Y-97650000D01*
X139000000Y-97700000D02*
X138950000Y-97650000D01*
X137200000Y-91800000D02*
X137200000Y-93075000D01*
%TO.N,Net-(SW1-A)*%
X148100000Y-80900000D02*
X147400000Y-80900000D01*
X149200000Y-83097500D02*
X149200000Y-81300000D01*
X136400000Y-85900000D02*
X136400000Y-84725000D01*
X136000000Y-87900000D02*
X136000000Y-86300000D01*
X147200000Y-81100000D02*
X147200000Y-82900000D01*
X148800000Y-80900000D02*
X148100000Y-80900000D01*
X140300000Y-89900000D02*
X138000000Y-89900000D01*
X136000000Y-86300000D02*
X136400000Y-85900000D01*
X147200000Y-82900000D02*
X146800000Y-83300000D01*
X149200000Y-81300000D02*
X148800000Y-80900000D01*
X147400000Y-80900000D02*
X147200000Y-81100000D01*
X138000000Y-89900000D02*
X136000000Y-87900000D01*
X149202500Y-83100000D02*
X149200000Y-83097500D01*
D36*
%TO.N,Net-(LED1-A2)*%
X148400687Y-96675000D02*
X149475687Y-96675000D01*
X149603187Y-96797500D02*
X150500000Y-96797500D01*
X149600687Y-96800000D02*
X149603187Y-96797500D01*
X149475687Y-96675000D02*
X149600687Y-96800000D01*
D37*
%TO.N,STATUS_LED_BLUE*%
X139600000Y-86600000D02*
X139600000Y-84725000D01*
X140700000Y-87700000D02*
X139600000Y-86600000D01*
X141200000Y-87700000D02*
X140700000Y-87700000D01*
X145500000Y-95725000D02*
X146600687Y-95725000D01*
%TO.N,STATUS_LED_RED*%
X146199265Y-96675735D02*
X146200000Y-96675000D01*
X146200000Y-96675000D02*
X146600687Y-96675000D01*
X138800000Y-86800000D02*
X140500000Y-88500000D01*
X140500000Y-88500000D02*
X141200000Y-88500000D01*
X145500000Y-96675000D02*
X146600687Y-96675000D01*
X138800000Y-84725000D02*
X138800000Y-86800000D01*
%TO.N,SWD_CLK*%
X142575000Y-84675000D02*
X142575000Y-86100000D01*
X144580000Y-82045000D02*
X144580000Y-82670000D01*
X144580000Y-82670000D02*
X142575000Y-84675000D01*
%TO.N,SWD_SWO*%
X140400000Y-83700000D02*
X140400000Y-84725000D01*
X140700000Y-83400000D02*
X140400000Y-83700000D01*
X141955000Y-83400000D02*
X140700000Y-83400000D01*
%TO.N,SWD_DIO*%
X145850000Y-82750000D02*
X143800000Y-84800000D01*
X143800000Y-84800000D02*
X143800000Y-86600000D01*
X145850000Y-82045000D02*
X145850000Y-82750000D01*
X143500000Y-86900000D02*
X142575000Y-86900000D01*
X143800000Y-86600000D02*
X143500000Y-86900000D01*
D36*
%TO.N,Net-(D1-A-Pad2)*%
X148200000Y-90900000D02*
X146358281Y-90900000D01*
X144745001Y-86600000D02*
X144100000Y-87245001D01*
X146358281Y-90900000D02*
X145858281Y-91400000D01*
X145858281Y-91400000D02*
X145320000Y-91400000D01*
X145320000Y-86600000D02*
X144745001Y-86600000D01*
X134250000Y-81050000D02*
X130762500Y-81050000D01*
X144100000Y-87245001D02*
X144100000Y-87300000D01*
X134300000Y-81100000D02*
X134250000Y-81050000D01*
%TD*%
%TA.AperFunction,Conductor*%
%TO.N,GND*%
G36*
X139242539Y-96419685D02*
G01*
X139288294Y-96472489D01*
X139299500Y-96524000D01*
X139299500Y-96876000D01*
X139279815Y-96943039D01*
X139227011Y-96988794D01*
X139175500Y-97000000D01*
X138799999Y-97000000D01*
X138536319Y-97263681D01*
X138509391Y-97278384D01*
X138483573Y-97294977D01*
X138477372Y-97295868D01*
X138474996Y-97297166D01*
X138448638Y-97300000D01*
X138288301Y-97300000D01*
X138278123Y-97299500D01*
X137924000Y-97299500D01*
X137856961Y-97279815D01*
X137811206Y-97227011D01*
X137800000Y-97175500D01*
X137800000Y-96624499D01*
X137819685Y-96557460D01*
X137872489Y-96511705D01*
X137923996Y-96500499D01*
X138277132Y-96500499D01*
X138278129Y-96500499D01*
X138288289Y-96500000D01*
X138599998Y-96500000D01*
X138600000Y-96500000D01*
X138613664Y-96486335D01*
X138662086Y-96456397D01*
X138679755Y-96450500D01*
X138689562Y-96450500D01*
X138765989Y-96430021D01*
X138800066Y-96410346D01*
X138811957Y-96406378D01*
X138829849Y-96405724D01*
X138851213Y-96400000D01*
X139175500Y-96400000D01*
X139242539Y-96419685D01*
G37*
%TD.AperFunction*%
%TD*%
%TA.AperFunction,Conductor*%
%TO.N,GND*%
G36*
X144861740Y-91900500D02*
G01*
X144861741Y-91900500D01*
X145706864Y-91900500D01*
X145728799Y-91906941D01*
X145751585Y-91908845D01*
X145761687Y-91916598D01*
X145773903Y-91920185D01*
X145788873Y-91937462D01*
X145807013Y-91951383D01*
X145814503Y-91967040D01*
X145819658Y-91972989D01*
X145823556Y-91982560D01*
X145825300Y-91987413D01*
X145858719Y-92112135D01*
X145888937Y-92164474D01*
X145892692Y-92174921D01*
X145893813Y-92193775D01*
X145900000Y-92216861D01*
X145900000Y-92800000D01*
X146876000Y-92800000D01*
X146943039Y-92819685D01*
X146988794Y-92872489D01*
X147000000Y-92924000D01*
X147000000Y-93776000D01*
X146980315Y-93843039D01*
X146927511Y-93888794D01*
X146876000Y-93900000D01*
X145151362Y-93900000D01*
X145084323Y-93880315D01*
X145063681Y-93863681D01*
X144736319Y-93536319D01*
X144702834Y-93474996D01*
X144700000Y-93448638D01*
X144700000Y-92020310D01*
X144719685Y-91953271D01*
X144772489Y-91907516D01*
X144841645Y-91897572D01*
X144861740Y-91900500D01*
G37*
%TD.AperFunction*%
%TD*%
%TA.AperFunction,Conductor*%
%TO.N,GND*%
G36*
X132215677Y-85319685D02*
G01*
X132236319Y-85336319D01*
X132263681Y-85363681D01*
X132297166Y-85425004D01*
X132300000Y-85451362D01*
X132300000Y-85700000D01*
X132563681Y-85963681D01*
X132597166Y-86025004D01*
X132600000Y-86051362D01*
X132600000Y-86700000D01*
X133163681Y-87263681D01*
X133178384Y-87290608D01*
X133194977Y-87316427D01*
X133195868Y-87322627D01*
X133197166Y-87325004D01*
X133200000Y-87351362D01*
X133200000Y-87448638D01*
X133180315Y-87515677D01*
X133163681Y-87536319D01*
X132936319Y-87763681D01*
X132874996Y-87797166D01*
X132848638Y-87800000D01*
X132774898Y-87800000D01*
X132707859Y-87780315D01*
X132675128Y-87749633D01*
X132622151Y-87677851D01*
X132512881Y-87597206D01*
X132504665Y-87592864D01*
X132505277Y-87591705D01*
X132468756Y-87568756D01*
X132200000Y-87300000D01*
X131624000Y-87300000D01*
X131556961Y-87280315D01*
X131511206Y-87227511D01*
X131500000Y-87176000D01*
X131500000Y-86051362D01*
X131519685Y-85984323D01*
X131536319Y-85963681D01*
X131700000Y-85800000D01*
X131700000Y-85451362D01*
X131708644Y-85421921D01*
X131715168Y-85391935D01*
X131718922Y-85386919D01*
X131719685Y-85384323D01*
X131736319Y-85363681D01*
X131763681Y-85336319D01*
X131825004Y-85302834D01*
X131851362Y-85300000D01*
X132148638Y-85300000D01*
X132215677Y-85319685D01*
G37*
%TD.AperFunction*%
%TD*%
%TA.AperFunction,Conductor*%
%TO.N,GND*%
G36*
X135943039Y-96520184D02*
G01*
X135988794Y-96572988D01*
X136000000Y-96624499D01*
X136000000Y-97676000D01*
X135980315Y-97743039D01*
X135927511Y-97788794D01*
X135876000Y-97800000D01*
X135351362Y-97800000D01*
X135284323Y-97780315D01*
X135263681Y-97763681D01*
X135100000Y-97600000D01*
X134324000Y-97600000D01*
X134256961Y-97580315D01*
X134211206Y-97527511D01*
X134200000Y-97476000D01*
X134200000Y-96924000D01*
X134219685Y-96856961D01*
X134272489Y-96811206D01*
X134324000Y-96800000D01*
X135000000Y-96800000D01*
X135263181Y-96536819D01*
X135324504Y-96503334D01*
X135350862Y-96500500D01*
X135798078Y-96500500D01*
X135798086Y-96500499D01*
X135876000Y-96500499D01*
X135943039Y-96520184D01*
G37*
%TD.AperFunction*%
%TD*%
%TA.AperFunction,Conductor*%
%TO.N,GND*%
G36*
X146943039Y-84119685D02*
G01*
X146988794Y-84172489D01*
X147000000Y-84224000D01*
X147000000Y-85076000D01*
X146980315Y-85143039D01*
X146927511Y-85188794D01*
X146876000Y-85200000D01*
X145900000Y-85200000D01*
X145900000Y-85783138D01*
X145892692Y-85825078D01*
X145888936Y-85835526D01*
X145858719Y-85887865D01*
X145825300Y-86012586D01*
X145823556Y-86017440D01*
X145805877Y-86041654D01*
X145790274Y-86067254D01*
X145785491Y-86069576D01*
X145782357Y-86073871D01*
X145754395Y-86084682D01*
X145727428Y-86097783D01*
X145718612Y-86098519D01*
X145717190Y-86099069D01*
X145715695Y-86098762D01*
X145706864Y-86099500D01*
X144861739Y-86099500D01*
X144859326Y-86099675D01*
X144850358Y-86100000D01*
X144824000Y-86100000D01*
X144756961Y-86080315D01*
X144711206Y-86027511D01*
X144700000Y-85976000D01*
X144700000Y-84551362D01*
X144719685Y-84484323D01*
X144736319Y-84463681D01*
X145063681Y-84136319D01*
X145125004Y-84102834D01*
X145151362Y-84100000D01*
X146876000Y-84100000D01*
X146943039Y-84119685D01*
G37*
%TD.AperFunction*%
%TD*%
%TA.AperFunction,Conductor*%
%TO.N,GND*%
G36*
X132943039Y-91719685D02*
G01*
X132988794Y-91772489D01*
X133000000Y-91824000D01*
X133000000Y-94176000D01*
X132980315Y-94243039D01*
X132927511Y-94288794D01*
X132876000Y-94300000D01*
X129924000Y-94300000D01*
X129856961Y-94280315D01*
X129811206Y-94227511D01*
X129800000Y-94176000D01*
X129800000Y-91824000D01*
X129819685Y-91756961D01*
X129872489Y-91711206D01*
X129924000Y-91700000D01*
X132876000Y-91700000D01*
X132943039Y-91719685D01*
G37*
%TD.AperFunction*%
%TD*%
%TA.AperFunction,Conductor*%
%TO.N,V_ESC*%
G36*
X132143039Y-95319685D02*
G01*
X132188794Y-95372489D01*
X132200000Y-95424000D01*
X132200000Y-97948638D01*
X132180315Y-98015677D01*
X132163681Y-98036319D01*
X131836319Y-98363681D01*
X131774996Y-98397166D01*
X131748638Y-98400000D01*
X123951362Y-98400000D01*
X123884323Y-98380315D01*
X123863681Y-98363681D01*
X123536319Y-98036319D01*
X123502834Y-97974996D01*
X123500000Y-97948638D01*
X123500000Y-97375987D01*
X123519685Y-97308948D01*
X123572489Y-97263193D01*
X123641647Y-97253249D01*
X123690640Y-97273136D01*
X123691290Y-97272077D01*
X123695437Y-97274618D01*
X123884782Y-97371095D01*
X124086871Y-97436757D01*
X124153000Y-97447231D01*
X124153000Y-96553012D01*
X124210007Y-96585925D01*
X124337174Y-96620000D01*
X124468826Y-96620000D01*
X124595993Y-96585925D01*
X124653000Y-96553012D01*
X124653000Y-97447230D01*
X124719126Y-97436757D01*
X124719129Y-97436757D01*
X124921217Y-97371095D01*
X125110557Y-97274620D01*
X125282459Y-97149727D01*
X125282464Y-97149723D01*
X125378413Y-97053775D01*
X125439736Y-97020290D01*
X125509428Y-97025274D01*
X125553775Y-97053775D01*
X125700000Y-97200000D01*
X130200000Y-97200000D01*
X130600000Y-96800000D01*
X130600000Y-95424000D01*
X130619685Y-95356961D01*
X130672489Y-95311206D01*
X130724000Y-95300000D01*
X132076000Y-95300000D01*
X132143039Y-95319685D01*
G37*
%TD.AperFunction*%
%TA.AperFunction,Conductor*%
G36*
X124653000Y-95686988D02*
G01*
X124595993Y-95654075D01*
X124468826Y-95620000D01*
X124337174Y-95620000D01*
X124210007Y-95654075D01*
X124153000Y-95686988D01*
X124153000Y-94013012D01*
X124210007Y-94045925D01*
X124337174Y-94080000D01*
X124468826Y-94080000D01*
X124595993Y-94045925D01*
X124653000Y-94013012D01*
X124653000Y-95686988D01*
G37*
%TD.AperFunction*%
%TA.AperFunction,Conductor*%
G36*
X124653000Y-93146988D02*
G01*
X124595993Y-93114075D01*
X124468826Y-93080000D01*
X124337174Y-93080000D01*
X124210007Y-93114075D01*
X124153000Y-93146988D01*
X124153000Y-91473012D01*
X124210007Y-91505925D01*
X124337174Y-91540000D01*
X124468826Y-91540000D01*
X124595993Y-91505925D01*
X124653000Y-91473012D01*
X124653000Y-93146988D01*
G37*
%TD.AperFunction*%
%TA.AperFunction,Conductor*%
G36*
X124653000Y-90606988D02*
G01*
X124595993Y-90574075D01*
X124468826Y-90540000D01*
X124337174Y-90540000D01*
X124210007Y-90574075D01*
X124153000Y-90606988D01*
X124153000Y-88933012D01*
X124210007Y-88965925D01*
X124337174Y-89000000D01*
X124468826Y-89000000D01*
X124595993Y-88965925D01*
X124653000Y-88933012D01*
X124653000Y-90606988D01*
G37*
%TD.AperFunction*%
%TA.AperFunction,Conductor*%
G36*
X124653000Y-88066988D02*
G01*
X124595993Y-88034075D01*
X124468826Y-88000000D01*
X124337174Y-88000000D01*
X124210007Y-88034075D01*
X124153000Y-88066988D01*
X124153000Y-86393012D01*
X124210007Y-86425925D01*
X124337174Y-86460000D01*
X124468826Y-86460000D01*
X124595993Y-86425925D01*
X124653000Y-86393012D01*
X124653000Y-88066988D01*
G37*
%TD.AperFunction*%
%TA.AperFunction,Conductor*%
G36*
X124653000Y-85526988D02*
G01*
X124595993Y-85494075D01*
X124468826Y-85460000D01*
X124337174Y-85460000D01*
X124210007Y-85494075D01*
X124153000Y-85526988D01*
X124153000Y-83853012D01*
X124210007Y-83885925D01*
X124337174Y-83920000D01*
X124468826Y-83920000D01*
X124595993Y-83885925D01*
X124653000Y-83853012D01*
X124653000Y-85526988D01*
G37*
%TD.AperFunction*%
%TA.AperFunction,Conductor*%
G36*
X124653000Y-82986988D02*
G01*
X124595993Y-82954075D01*
X124468826Y-82920000D01*
X124337174Y-82920000D01*
X124210007Y-82954075D01*
X124153000Y-82986988D01*
X124153000Y-81313012D01*
X124210007Y-81345925D01*
X124337174Y-81380000D01*
X124468826Y-81380000D01*
X124595993Y-81345925D01*
X124653000Y-81313012D01*
X124653000Y-82986988D01*
G37*
%TD.AperFunction*%
%TA.AperFunction,Conductor*%
G36*
X125243039Y-78919685D02*
G01*
X125288794Y-78972489D01*
X125300000Y-79024000D01*
X125300000Y-79620051D01*
X125280315Y-79687090D01*
X125227511Y-79732845D01*
X125158353Y-79742789D01*
X125115101Y-79727184D01*
X125114895Y-79727589D01*
X125111676Y-79725949D01*
X125111219Y-79725784D01*
X125110559Y-79725379D01*
X124921215Y-79628903D01*
X124719124Y-79563241D01*
X124653000Y-79552768D01*
X124653000Y-80446988D01*
X124595993Y-80414075D01*
X124468826Y-80380000D01*
X124337174Y-80380000D01*
X124210007Y-80414075D01*
X124153000Y-80446988D01*
X124153000Y-79552768D01*
X124152999Y-79552768D01*
X124086875Y-79563241D01*
X123884784Y-79628903D01*
X123695437Y-79725381D01*
X123691290Y-79727923D01*
X123690490Y-79726618D01*
X123631053Y-79747811D01*
X123563002Y-79731972D01*
X123514318Y-79681856D01*
X123500000Y-79624012D01*
X123500000Y-79024000D01*
X123519685Y-78956961D01*
X123572489Y-78911206D01*
X123624000Y-78900000D01*
X125176000Y-78900000D01*
X125243039Y-78919685D01*
G37*
%TD.AperFunction*%
%TD*%
%TA.AperFunction,Conductor*%
%TO.N,GND*%
G36*
X136643039Y-94419685D02*
G01*
X136688794Y-94472489D01*
X136700000Y-94524000D01*
X136700000Y-95500000D01*
X136900000Y-95700000D01*
X136925500Y-95700000D01*
X136992539Y-95719685D01*
X137038294Y-95772489D01*
X137049500Y-95824000D01*
X137049501Y-96176000D01*
X137029817Y-96243039D01*
X136977013Y-96288794D01*
X136925501Y-96300000D01*
X136324500Y-96300000D01*
X136316027Y-96297512D01*
X136307294Y-96298800D01*
X136283020Y-96287820D01*
X136257461Y-96280315D01*
X136251680Y-96273643D01*
X136243634Y-96270004D01*
X136229147Y-96247639D01*
X136211706Y-96227511D01*
X136209450Y-96217230D01*
X136205649Y-96211362D01*
X136200690Y-96177307D01*
X136200501Y-96176445D01*
X136200499Y-96176062D01*
X136200499Y-96047868D01*
X136200031Y-96045515D01*
X136200001Y-96037155D01*
X136200018Y-96037093D01*
X136200000Y-96036710D01*
X136200000Y-95700000D01*
X135936319Y-95436319D01*
X135902834Y-95374996D01*
X135900000Y-95348638D01*
X135900000Y-94524000D01*
X135919685Y-94456961D01*
X135972489Y-94411206D01*
X136024000Y-94400000D01*
X136576000Y-94400000D01*
X136643039Y-94419685D01*
G37*
%TD.AperFunction*%
%TD*%
M02*
