%TF.GenerationSoftware,KiCad,Pcbnew,9.0.0*%
%TF.CreationDate,2025-06-23T18:52:12-04:00*%
%TF.ProjectId,CRSF_PWM_Gyro,43525346-5f50-4574-9d5f-4779726f2e6b,rev?*%
%TF.SameCoordinates,Original*%
%TF.FileFunction,Legend,Top*%
%TF.FilePolarity,Positive*%
%FSLAX46Y46*%
G04 Gerber Fmt 4.6, Leading zero omitted, Abs format (unit mm)*
G04 Created by KiCad (PCBNEW 9.0.0) date 2025-06-23 18:52:12*
%MOMM*%
%LPD*%
G01*
G04 APERTURE LIST*
%ADD10C,0.150000*%
%ADD11C,0.120000*%
%ADD12C,0.200000*%
%ADD13C,0.152400*%
%ADD14C,0.127000*%
G04 APERTURE END LIST*
D10*
X150833333Y-98454819D02*
X150500000Y-97978628D01*
X150261905Y-98454819D02*
X150261905Y-97454819D01*
X150261905Y-97454819D02*
X150642857Y-97454819D01*
X150642857Y-97454819D02*
X150738095Y-97502438D01*
X150738095Y-97502438D02*
X150785714Y-97550057D01*
X150785714Y-97550057D02*
X150833333Y-97645295D01*
X150833333Y-97645295D02*
X150833333Y-97788152D01*
X150833333Y-97788152D02*
X150785714Y-97883390D01*
X150785714Y-97883390D02*
X150738095Y-97931009D01*
X150738095Y-97931009D02*
X150642857Y-97978628D01*
X150642857Y-97978628D02*
X150261905Y-97978628D01*
X151690476Y-97788152D02*
X151690476Y-98454819D01*
X151452381Y-97407200D02*
X151214286Y-98121485D01*
X151214286Y-98121485D02*
X151833333Y-98121485D01*
X129359580Y-87442857D02*
X129407200Y-87490476D01*
X129407200Y-87490476D02*
X129454819Y-87633333D01*
X129454819Y-87633333D02*
X129454819Y-87728571D01*
X129454819Y-87728571D02*
X129407200Y-87871428D01*
X129407200Y-87871428D02*
X129311961Y-87966666D01*
X129311961Y-87966666D02*
X129216723Y-88014285D01*
X129216723Y-88014285D02*
X129026247Y-88061904D01*
X129026247Y-88061904D02*
X128883390Y-88061904D01*
X128883390Y-88061904D02*
X128692914Y-88014285D01*
X128692914Y-88014285D02*
X128597676Y-87966666D01*
X128597676Y-87966666D02*
X128502438Y-87871428D01*
X128502438Y-87871428D02*
X128454819Y-87728571D01*
X128454819Y-87728571D02*
X128454819Y-87633333D01*
X128454819Y-87633333D02*
X128502438Y-87490476D01*
X128502438Y-87490476D02*
X128550057Y-87442857D01*
X129454819Y-86490476D02*
X129454819Y-87061904D01*
X129454819Y-86776190D02*
X128454819Y-86776190D01*
X128454819Y-86776190D02*
X128597676Y-86871428D01*
X128597676Y-86871428D02*
X128692914Y-86966666D01*
X128692914Y-86966666D02*
X128740533Y-87061904D01*
X128454819Y-85871428D02*
X128454819Y-85776190D01*
X128454819Y-85776190D02*
X128502438Y-85680952D01*
X128502438Y-85680952D02*
X128550057Y-85633333D01*
X128550057Y-85633333D02*
X128645295Y-85585714D01*
X128645295Y-85585714D02*
X128835771Y-85538095D01*
X128835771Y-85538095D02*
X129073866Y-85538095D01*
X129073866Y-85538095D02*
X129264342Y-85585714D01*
X129264342Y-85585714D02*
X129359580Y-85633333D01*
X129359580Y-85633333D02*
X129407200Y-85680952D01*
X129407200Y-85680952D02*
X129454819Y-85776190D01*
X129454819Y-85776190D02*
X129454819Y-85871428D01*
X129454819Y-85871428D02*
X129407200Y-85966666D01*
X129407200Y-85966666D02*
X129359580Y-86014285D01*
X129359580Y-86014285D02*
X129264342Y-86061904D01*
X129264342Y-86061904D02*
X129073866Y-86109523D01*
X129073866Y-86109523D02*
X128835771Y-86109523D01*
X128835771Y-86109523D02*
X128645295Y-86061904D01*
X128645295Y-86061904D02*
X128550057Y-86014285D01*
X128550057Y-86014285D02*
X128502438Y-85966666D01*
X128502438Y-85966666D02*
X128454819Y-85871428D01*
X132057142Y-82959580D02*
X132009523Y-83007200D01*
X132009523Y-83007200D02*
X131866666Y-83054819D01*
X131866666Y-83054819D02*
X131771428Y-83054819D01*
X131771428Y-83054819D02*
X131628571Y-83007200D01*
X131628571Y-83007200D02*
X131533333Y-82911961D01*
X131533333Y-82911961D02*
X131485714Y-82816723D01*
X131485714Y-82816723D02*
X131438095Y-82626247D01*
X131438095Y-82626247D02*
X131438095Y-82483390D01*
X131438095Y-82483390D02*
X131485714Y-82292914D01*
X131485714Y-82292914D02*
X131533333Y-82197676D01*
X131533333Y-82197676D02*
X131628571Y-82102438D01*
X131628571Y-82102438D02*
X131771428Y-82054819D01*
X131771428Y-82054819D02*
X131866666Y-82054819D01*
X131866666Y-82054819D02*
X132009523Y-82102438D01*
X132009523Y-82102438D02*
X132057142Y-82150057D01*
X133009523Y-83054819D02*
X132438095Y-83054819D01*
X132723809Y-83054819D02*
X132723809Y-82054819D01*
X132723809Y-82054819D02*
X132628571Y-82197676D01*
X132628571Y-82197676D02*
X132533333Y-82292914D01*
X132533333Y-82292914D02*
X132438095Y-82340533D01*
X133390476Y-82150057D02*
X133438095Y-82102438D01*
X133438095Y-82102438D02*
X133533333Y-82054819D01*
X133533333Y-82054819D02*
X133771428Y-82054819D01*
X133771428Y-82054819D02*
X133866666Y-82102438D01*
X133866666Y-82102438D02*
X133914285Y-82150057D01*
X133914285Y-82150057D02*
X133961904Y-82245295D01*
X133961904Y-82245295D02*
X133961904Y-82340533D01*
X133961904Y-82340533D02*
X133914285Y-82483390D01*
X133914285Y-82483390D02*
X133342857Y-83054819D01*
X133342857Y-83054819D02*
X133961904Y-83054819D01*
X133833333Y-79059580D02*
X133785714Y-79107200D01*
X133785714Y-79107200D02*
X133642857Y-79154819D01*
X133642857Y-79154819D02*
X133547619Y-79154819D01*
X133547619Y-79154819D02*
X133404762Y-79107200D01*
X133404762Y-79107200D02*
X133309524Y-79011961D01*
X133309524Y-79011961D02*
X133261905Y-78916723D01*
X133261905Y-78916723D02*
X133214286Y-78726247D01*
X133214286Y-78726247D02*
X133214286Y-78583390D01*
X133214286Y-78583390D02*
X133261905Y-78392914D01*
X133261905Y-78392914D02*
X133309524Y-78297676D01*
X133309524Y-78297676D02*
X133404762Y-78202438D01*
X133404762Y-78202438D02*
X133547619Y-78154819D01*
X133547619Y-78154819D02*
X133642857Y-78154819D01*
X133642857Y-78154819D02*
X133785714Y-78202438D01*
X133785714Y-78202438D02*
X133833333Y-78250057D01*
X134785714Y-79154819D02*
X134214286Y-79154819D01*
X134500000Y-79154819D02*
X134500000Y-78154819D01*
X134500000Y-78154819D02*
X134404762Y-78297676D01*
X134404762Y-78297676D02*
X134309524Y-78392914D01*
X134309524Y-78392914D02*
X134214286Y-78440533D01*
X144359580Y-94166666D02*
X144407200Y-94214285D01*
X144407200Y-94214285D02*
X144454819Y-94357142D01*
X144454819Y-94357142D02*
X144454819Y-94452380D01*
X144454819Y-94452380D02*
X144407200Y-94595237D01*
X144407200Y-94595237D02*
X144311961Y-94690475D01*
X144311961Y-94690475D02*
X144216723Y-94738094D01*
X144216723Y-94738094D02*
X144026247Y-94785713D01*
X144026247Y-94785713D02*
X143883390Y-94785713D01*
X143883390Y-94785713D02*
X143692914Y-94738094D01*
X143692914Y-94738094D02*
X143597676Y-94690475D01*
X143597676Y-94690475D02*
X143502438Y-94595237D01*
X143502438Y-94595237D02*
X143454819Y-94452380D01*
X143454819Y-94452380D02*
X143454819Y-94357142D01*
X143454819Y-94357142D02*
X143502438Y-94214285D01*
X143502438Y-94214285D02*
X143550057Y-94166666D01*
X143454819Y-93309523D02*
X143454819Y-93499999D01*
X143454819Y-93499999D02*
X143502438Y-93595237D01*
X143502438Y-93595237D02*
X143550057Y-93642856D01*
X143550057Y-93642856D02*
X143692914Y-93738094D01*
X143692914Y-93738094D02*
X143883390Y-93785713D01*
X143883390Y-93785713D02*
X144264342Y-93785713D01*
X144264342Y-93785713D02*
X144359580Y-93738094D01*
X144359580Y-93738094D02*
X144407200Y-93690475D01*
X144407200Y-93690475D02*
X144454819Y-93595237D01*
X144454819Y-93595237D02*
X144454819Y-93404761D01*
X144454819Y-93404761D02*
X144407200Y-93309523D01*
X144407200Y-93309523D02*
X144359580Y-93261904D01*
X144359580Y-93261904D02*
X144264342Y-93214285D01*
X144264342Y-93214285D02*
X144026247Y-93214285D01*
X144026247Y-93214285D02*
X143931009Y-93261904D01*
X143931009Y-93261904D02*
X143883390Y-93309523D01*
X143883390Y-93309523D02*
X143835771Y-93404761D01*
X143835771Y-93404761D02*
X143835771Y-93595237D01*
X143835771Y-93595237D02*
X143883390Y-93690475D01*
X143883390Y-93690475D02*
X143931009Y-93738094D01*
X143931009Y-93738094D02*
X144026247Y-93785713D01*
X130757142Y-91459580D02*
X130709523Y-91507200D01*
X130709523Y-91507200D02*
X130566666Y-91554819D01*
X130566666Y-91554819D02*
X130471428Y-91554819D01*
X130471428Y-91554819D02*
X130328571Y-91507200D01*
X130328571Y-91507200D02*
X130233333Y-91411961D01*
X130233333Y-91411961D02*
X130185714Y-91316723D01*
X130185714Y-91316723D02*
X130138095Y-91126247D01*
X130138095Y-91126247D02*
X130138095Y-90983390D01*
X130138095Y-90983390D02*
X130185714Y-90792914D01*
X130185714Y-90792914D02*
X130233333Y-90697676D01*
X130233333Y-90697676D02*
X130328571Y-90602438D01*
X130328571Y-90602438D02*
X130471428Y-90554819D01*
X130471428Y-90554819D02*
X130566666Y-90554819D01*
X130566666Y-90554819D02*
X130709523Y-90602438D01*
X130709523Y-90602438D02*
X130757142Y-90650057D01*
X131709523Y-91554819D02*
X131138095Y-91554819D01*
X131423809Y-91554819D02*
X131423809Y-90554819D01*
X131423809Y-90554819D02*
X131328571Y-90697676D01*
X131328571Y-90697676D02*
X131233333Y-90792914D01*
X131233333Y-90792914D02*
X131138095Y-90840533D01*
X132661904Y-91554819D02*
X132090476Y-91554819D01*
X132376190Y-91554819D02*
X132376190Y-90554819D01*
X132376190Y-90554819D02*
X132280952Y-90697676D01*
X132280952Y-90697676D02*
X132185714Y-90792914D01*
X132185714Y-90792914D02*
X132090476Y-90840533D01*
X146381639Y-98454819D02*
X145905449Y-98454819D01*
X145905449Y-98454819D02*
X145905449Y-97454819D01*
X146714973Y-97931009D02*
X147048306Y-97931009D01*
X147191163Y-98454819D02*
X146714973Y-98454819D01*
X146714973Y-98454819D02*
X146714973Y-97454819D01*
X146714973Y-97454819D02*
X147191163Y-97454819D01*
X147619735Y-98454819D02*
X147619735Y-97454819D01*
X147619735Y-97454819D02*
X147857830Y-97454819D01*
X147857830Y-97454819D02*
X148000687Y-97502438D01*
X148000687Y-97502438D02*
X148095925Y-97597676D01*
X148095925Y-97597676D02*
X148143544Y-97692914D01*
X148143544Y-97692914D02*
X148191163Y-97883390D01*
X148191163Y-97883390D02*
X148191163Y-98026247D01*
X148191163Y-98026247D02*
X148143544Y-98216723D01*
X148143544Y-98216723D02*
X148095925Y-98311961D01*
X148095925Y-98311961D02*
X148000687Y-98407200D01*
X148000687Y-98407200D02*
X147857830Y-98454819D01*
X147857830Y-98454819D02*
X147619735Y-98454819D01*
X149143544Y-98454819D02*
X148572116Y-98454819D01*
X148857830Y-98454819D02*
X148857830Y-97454819D01*
X148857830Y-97454819D02*
X148762592Y-97597676D01*
X148762592Y-97597676D02*
X148667354Y-97692914D01*
X148667354Y-97692914D02*
X148572116Y-97740533D01*
X128978628Y-89876190D02*
X129454819Y-89876190D01*
X128454819Y-90209523D02*
X128978628Y-89876190D01*
X128978628Y-89876190D02*
X128454819Y-89542857D01*
X129454819Y-88685714D02*
X129454819Y-89257142D01*
X129454819Y-88971428D02*
X128454819Y-88971428D01*
X128454819Y-88971428D02*
X128597676Y-89066666D01*
X128597676Y-89066666D02*
X128692914Y-89161904D01*
X128692914Y-89161904D02*
X128740533Y-89257142D01*
X138966667Y-79107200D02*
X139109524Y-79154819D01*
X139109524Y-79154819D02*
X139347619Y-79154819D01*
X139347619Y-79154819D02*
X139442857Y-79107200D01*
X139442857Y-79107200D02*
X139490476Y-79059580D01*
X139490476Y-79059580D02*
X139538095Y-78964342D01*
X139538095Y-78964342D02*
X139538095Y-78869104D01*
X139538095Y-78869104D02*
X139490476Y-78773866D01*
X139490476Y-78773866D02*
X139442857Y-78726247D01*
X139442857Y-78726247D02*
X139347619Y-78678628D01*
X139347619Y-78678628D02*
X139157143Y-78631009D01*
X139157143Y-78631009D02*
X139061905Y-78583390D01*
X139061905Y-78583390D02*
X139014286Y-78535771D01*
X139014286Y-78535771D02*
X138966667Y-78440533D01*
X138966667Y-78440533D02*
X138966667Y-78345295D01*
X138966667Y-78345295D02*
X139014286Y-78250057D01*
X139014286Y-78250057D02*
X139061905Y-78202438D01*
X139061905Y-78202438D02*
X139157143Y-78154819D01*
X139157143Y-78154819D02*
X139395238Y-78154819D01*
X139395238Y-78154819D02*
X139538095Y-78202438D01*
X139871429Y-78154819D02*
X140109524Y-79154819D01*
X140109524Y-79154819D02*
X140300000Y-78440533D01*
X140300000Y-78440533D02*
X140490476Y-79154819D01*
X140490476Y-79154819D02*
X140728572Y-78154819D01*
X141109524Y-79154819D02*
X141109524Y-78154819D01*
X141109524Y-78154819D02*
X141347619Y-78154819D01*
X141347619Y-78154819D02*
X141490476Y-78202438D01*
X141490476Y-78202438D02*
X141585714Y-78297676D01*
X141585714Y-78297676D02*
X141633333Y-78392914D01*
X141633333Y-78392914D02*
X141680952Y-78583390D01*
X141680952Y-78583390D02*
X141680952Y-78726247D01*
X141680952Y-78726247D02*
X141633333Y-78916723D01*
X141633333Y-78916723D02*
X141585714Y-79011961D01*
X141585714Y-79011961D02*
X141490476Y-79107200D01*
X141490476Y-79107200D02*
X141347619Y-79154819D01*
X141347619Y-79154819D02*
X141109524Y-79154819D01*
X142633333Y-79154819D02*
X142061905Y-79154819D01*
X142347619Y-79154819D02*
X142347619Y-78154819D01*
X142347619Y-78154819D02*
X142252381Y-78297676D01*
X142252381Y-78297676D02*
X142157143Y-78392914D01*
X142157143Y-78392914D02*
X142061905Y-78440533D01*
X132533333Y-84459580D02*
X132485714Y-84507200D01*
X132485714Y-84507200D02*
X132342857Y-84554819D01*
X132342857Y-84554819D02*
X132247619Y-84554819D01*
X132247619Y-84554819D02*
X132104762Y-84507200D01*
X132104762Y-84507200D02*
X132009524Y-84411961D01*
X132009524Y-84411961D02*
X131961905Y-84316723D01*
X131961905Y-84316723D02*
X131914286Y-84126247D01*
X131914286Y-84126247D02*
X131914286Y-83983390D01*
X131914286Y-83983390D02*
X131961905Y-83792914D01*
X131961905Y-83792914D02*
X132009524Y-83697676D01*
X132009524Y-83697676D02*
X132104762Y-83602438D01*
X132104762Y-83602438D02*
X132247619Y-83554819D01*
X132247619Y-83554819D02*
X132342857Y-83554819D01*
X132342857Y-83554819D02*
X132485714Y-83602438D01*
X132485714Y-83602438D02*
X132533333Y-83650057D01*
X132866667Y-83554819D02*
X133533333Y-83554819D01*
X133533333Y-83554819D02*
X133104762Y-84554819D01*
X122166666Y-78154819D02*
X122166666Y-78869104D01*
X122166666Y-78869104D02*
X122119047Y-79011961D01*
X122119047Y-79011961D02*
X122023809Y-79107200D01*
X122023809Y-79107200D02*
X121880952Y-79154819D01*
X121880952Y-79154819D02*
X121785714Y-79154819D01*
X122595238Y-78250057D02*
X122642857Y-78202438D01*
X122642857Y-78202438D02*
X122738095Y-78154819D01*
X122738095Y-78154819D02*
X122976190Y-78154819D01*
X122976190Y-78154819D02*
X123071428Y-78202438D01*
X123071428Y-78202438D02*
X123119047Y-78250057D01*
X123119047Y-78250057D02*
X123166666Y-78345295D01*
X123166666Y-78345295D02*
X123166666Y-78440533D01*
X123166666Y-78440533D02*
X123119047Y-78583390D01*
X123119047Y-78583390D02*
X122547619Y-79154819D01*
X122547619Y-79154819D02*
X123166666Y-79154819D01*
X148966667Y-79107200D02*
X149109524Y-79154819D01*
X149109524Y-79154819D02*
X149347619Y-79154819D01*
X149347619Y-79154819D02*
X149442857Y-79107200D01*
X149442857Y-79107200D02*
X149490476Y-79059580D01*
X149490476Y-79059580D02*
X149538095Y-78964342D01*
X149538095Y-78964342D02*
X149538095Y-78869104D01*
X149538095Y-78869104D02*
X149490476Y-78773866D01*
X149490476Y-78773866D02*
X149442857Y-78726247D01*
X149442857Y-78726247D02*
X149347619Y-78678628D01*
X149347619Y-78678628D02*
X149157143Y-78631009D01*
X149157143Y-78631009D02*
X149061905Y-78583390D01*
X149061905Y-78583390D02*
X149014286Y-78535771D01*
X149014286Y-78535771D02*
X148966667Y-78440533D01*
X148966667Y-78440533D02*
X148966667Y-78345295D01*
X148966667Y-78345295D02*
X149014286Y-78250057D01*
X149014286Y-78250057D02*
X149061905Y-78202438D01*
X149061905Y-78202438D02*
X149157143Y-78154819D01*
X149157143Y-78154819D02*
X149395238Y-78154819D01*
X149395238Y-78154819D02*
X149538095Y-78202438D01*
X149871429Y-78154819D02*
X150109524Y-79154819D01*
X150109524Y-79154819D02*
X150300000Y-78440533D01*
X150300000Y-78440533D02*
X150490476Y-79154819D01*
X150490476Y-79154819D02*
X150728572Y-78154819D01*
X151633333Y-79154819D02*
X151061905Y-79154819D01*
X151347619Y-79154819D02*
X151347619Y-78154819D01*
X151347619Y-78154819D02*
X151252381Y-78297676D01*
X151252381Y-78297676D02*
X151157143Y-78392914D01*
X151157143Y-78392914D02*
X151061905Y-78440533D01*
X141433333Y-96259580D02*
X141385714Y-96307200D01*
X141385714Y-96307200D02*
X141242857Y-96354819D01*
X141242857Y-96354819D02*
X141147619Y-96354819D01*
X141147619Y-96354819D02*
X141004762Y-96307200D01*
X141004762Y-96307200D02*
X140909524Y-96211961D01*
X140909524Y-96211961D02*
X140861905Y-96116723D01*
X140861905Y-96116723D02*
X140814286Y-95926247D01*
X140814286Y-95926247D02*
X140814286Y-95783390D01*
X140814286Y-95783390D02*
X140861905Y-95592914D01*
X140861905Y-95592914D02*
X140909524Y-95497676D01*
X140909524Y-95497676D02*
X141004762Y-95402438D01*
X141004762Y-95402438D02*
X141147619Y-95354819D01*
X141147619Y-95354819D02*
X141242857Y-95354819D01*
X141242857Y-95354819D02*
X141385714Y-95402438D01*
X141385714Y-95402438D02*
X141433333Y-95450057D01*
X142338095Y-95354819D02*
X141861905Y-95354819D01*
X141861905Y-95354819D02*
X141814286Y-95831009D01*
X141814286Y-95831009D02*
X141861905Y-95783390D01*
X141861905Y-95783390D02*
X141957143Y-95735771D01*
X141957143Y-95735771D02*
X142195238Y-95735771D01*
X142195238Y-95735771D02*
X142290476Y-95783390D01*
X142290476Y-95783390D02*
X142338095Y-95831009D01*
X142338095Y-95831009D02*
X142385714Y-95926247D01*
X142385714Y-95926247D02*
X142385714Y-96164342D01*
X142385714Y-96164342D02*
X142338095Y-96259580D01*
X142338095Y-96259580D02*
X142290476Y-96307200D01*
X142290476Y-96307200D02*
X142195238Y-96354819D01*
X142195238Y-96354819D02*
X141957143Y-96354819D01*
X141957143Y-96354819D02*
X141861905Y-96307200D01*
X141861905Y-96307200D02*
X141814286Y-96259580D01*
X146833333Y-79059580D02*
X146785714Y-79107200D01*
X146785714Y-79107200D02*
X146642857Y-79154819D01*
X146642857Y-79154819D02*
X146547619Y-79154819D01*
X146547619Y-79154819D02*
X146404762Y-79107200D01*
X146404762Y-79107200D02*
X146309524Y-79011961D01*
X146309524Y-79011961D02*
X146261905Y-78916723D01*
X146261905Y-78916723D02*
X146214286Y-78726247D01*
X146214286Y-78726247D02*
X146214286Y-78583390D01*
X146214286Y-78583390D02*
X146261905Y-78392914D01*
X146261905Y-78392914D02*
X146309524Y-78297676D01*
X146309524Y-78297676D02*
X146404762Y-78202438D01*
X146404762Y-78202438D02*
X146547619Y-78154819D01*
X146547619Y-78154819D02*
X146642857Y-78154819D01*
X146642857Y-78154819D02*
X146785714Y-78202438D01*
X146785714Y-78202438D02*
X146833333Y-78250057D01*
X147690476Y-78488152D02*
X147690476Y-79154819D01*
X147452381Y-78107200D02*
X147214286Y-78821485D01*
X147214286Y-78821485D02*
X147833333Y-78821485D01*
X142138095Y-83854819D02*
X142138095Y-84664342D01*
X142138095Y-84664342D02*
X142185714Y-84759580D01*
X142185714Y-84759580D02*
X142233333Y-84807200D01*
X142233333Y-84807200D02*
X142328571Y-84854819D01*
X142328571Y-84854819D02*
X142519047Y-84854819D01*
X142519047Y-84854819D02*
X142614285Y-84807200D01*
X142614285Y-84807200D02*
X142661904Y-84759580D01*
X142661904Y-84759580D02*
X142709523Y-84664342D01*
X142709523Y-84664342D02*
X142709523Y-83854819D01*
X143138095Y-83950057D02*
X143185714Y-83902438D01*
X143185714Y-83902438D02*
X143280952Y-83854819D01*
X143280952Y-83854819D02*
X143519047Y-83854819D01*
X143519047Y-83854819D02*
X143614285Y-83902438D01*
X143614285Y-83902438D02*
X143661904Y-83950057D01*
X143661904Y-83950057D02*
X143709523Y-84045295D01*
X143709523Y-84045295D02*
X143709523Y-84140533D01*
X143709523Y-84140533D02*
X143661904Y-84283390D01*
X143661904Y-84283390D02*
X143090476Y-84854819D01*
X143090476Y-84854819D02*
X143709523Y-84854819D01*
X138733333Y-83559580D02*
X138685714Y-83607200D01*
X138685714Y-83607200D02*
X138542857Y-83654819D01*
X138542857Y-83654819D02*
X138447619Y-83654819D01*
X138447619Y-83654819D02*
X138304762Y-83607200D01*
X138304762Y-83607200D02*
X138209524Y-83511961D01*
X138209524Y-83511961D02*
X138161905Y-83416723D01*
X138161905Y-83416723D02*
X138114286Y-83226247D01*
X138114286Y-83226247D02*
X138114286Y-83083390D01*
X138114286Y-83083390D02*
X138161905Y-82892914D01*
X138161905Y-82892914D02*
X138209524Y-82797676D01*
X138209524Y-82797676D02*
X138304762Y-82702438D01*
X138304762Y-82702438D02*
X138447619Y-82654819D01*
X138447619Y-82654819D02*
X138542857Y-82654819D01*
X138542857Y-82654819D02*
X138685714Y-82702438D01*
X138685714Y-82702438D02*
X138733333Y-82750057D01*
X139114286Y-82750057D02*
X139161905Y-82702438D01*
X139161905Y-82702438D02*
X139257143Y-82654819D01*
X139257143Y-82654819D02*
X139495238Y-82654819D01*
X139495238Y-82654819D02*
X139590476Y-82702438D01*
X139590476Y-82702438D02*
X139638095Y-82750057D01*
X139638095Y-82750057D02*
X139685714Y-82845295D01*
X139685714Y-82845295D02*
X139685714Y-82940533D01*
X139685714Y-82940533D02*
X139638095Y-83083390D01*
X139638095Y-83083390D02*
X139066667Y-83654819D01*
X139066667Y-83654819D02*
X139685714Y-83654819D01*
X141554819Y-98266666D02*
X141078628Y-98599999D01*
X141554819Y-98838094D02*
X140554819Y-98838094D01*
X140554819Y-98838094D02*
X140554819Y-98457142D01*
X140554819Y-98457142D02*
X140602438Y-98361904D01*
X140602438Y-98361904D02*
X140650057Y-98314285D01*
X140650057Y-98314285D02*
X140745295Y-98266666D01*
X140745295Y-98266666D02*
X140888152Y-98266666D01*
X140888152Y-98266666D02*
X140983390Y-98314285D01*
X140983390Y-98314285D02*
X141031009Y-98361904D01*
X141031009Y-98361904D02*
X141078628Y-98457142D01*
X141078628Y-98457142D02*
X141078628Y-98838094D01*
X141554819Y-97314285D02*
X141554819Y-97885713D01*
X141554819Y-97599999D02*
X140554819Y-97599999D01*
X140554819Y-97599999D02*
X140697676Y-97695237D01*
X140697676Y-97695237D02*
X140792914Y-97790475D01*
X140792914Y-97790475D02*
X140840533Y-97885713D01*
X143933333Y-96354819D02*
X143600000Y-95878628D01*
X143361905Y-96354819D02*
X143361905Y-95354819D01*
X143361905Y-95354819D02*
X143742857Y-95354819D01*
X143742857Y-95354819D02*
X143838095Y-95402438D01*
X143838095Y-95402438D02*
X143885714Y-95450057D01*
X143885714Y-95450057D02*
X143933333Y-95545295D01*
X143933333Y-95545295D02*
X143933333Y-95688152D01*
X143933333Y-95688152D02*
X143885714Y-95783390D01*
X143885714Y-95783390D02*
X143838095Y-95831009D01*
X143838095Y-95831009D02*
X143742857Y-95878628D01*
X143742857Y-95878628D02*
X143361905Y-95878628D01*
X144314286Y-95450057D02*
X144361905Y-95402438D01*
X144361905Y-95402438D02*
X144457143Y-95354819D01*
X144457143Y-95354819D02*
X144695238Y-95354819D01*
X144695238Y-95354819D02*
X144790476Y-95402438D01*
X144790476Y-95402438D02*
X144838095Y-95450057D01*
X144838095Y-95450057D02*
X144885714Y-95545295D01*
X144885714Y-95545295D02*
X144885714Y-95640533D01*
X144885714Y-95640533D02*
X144838095Y-95783390D01*
X144838095Y-95783390D02*
X144266667Y-96354819D01*
X144266667Y-96354819D02*
X144885714Y-96354819D01*
X133654819Y-81361904D02*
X134464342Y-81361904D01*
X134464342Y-81361904D02*
X134559580Y-81314285D01*
X134559580Y-81314285D02*
X134607200Y-81266666D01*
X134607200Y-81266666D02*
X134654819Y-81171428D01*
X134654819Y-81171428D02*
X134654819Y-80980952D01*
X134654819Y-80980952D02*
X134607200Y-80885714D01*
X134607200Y-80885714D02*
X134559580Y-80838095D01*
X134559580Y-80838095D02*
X134464342Y-80790476D01*
X134464342Y-80790476D02*
X133654819Y-80790476D01*
X134654819Y-79790476D02*
X134654819Y-80361904D01*
X134654819Y-80076190D02*
X133654819Y-80076190D01*
X133654819Y-80076190D02*
X133797676Y-80171428D01*
X133797676Y-80171428D02*
X133892914Y-80266666D01*
X133892914Y-80266666D02*
X133940533Y-80361904D01*
X137854819Y-79299999D02*
X138092914Y-79299999D01*
X137997676Y-79538094D02*
X138092914Y-79299999D01*
X138092914Y-79299999D02*
X137997676Y-79061904D01*
X138283390Y-79442856D02*
X138092914Y-79299999D01*
X138092914Y-79299999D02*
X138283390Y-79157142D01*
X147716666Y-93954819D02*
X147716666Y-94669104D01*
X147716666Y-94669104D02*
X147669047Y-94811961D01*
X147669047Y-94811961D02*
X147573809Y-94907200D01*
X147573809Y-94907200D02*
X147430952Y-94954819D01*
X147430952Y-94954819D02*
X147335714Y-94954819D01*
X148716666Y-94954819D02*
X148145238Y-94954819D01*
X148430952Y-94954819D02*
X148430952Y-93954819D01*
X148430952Y-93954819D02*
X148335714Y-94097676D01*
X148335714Y-94097676D02*
X148240476Y-94192914D01*
X148240476Y-94192914D02*
X148145238Y-94240533D01*
X140154819Y-98190475D02*
X139154819Y-98190475D01*
X139154819Y-98190475D02*
X139869104Y-97857142D01*
X139869104Y-97857142D02*
X139154819Y-97523809D01*
X139154819Y-97523809D02*
X140154819Y-97523809D01*
X139154819Y-97190475D02*
X139154819Y-96619047D01*
X140154819Y-96904761D02*
X139154819Y-96904761D01*
X140154819Y-95761904D02*
X140154819Y-96333332D01*
X140154819Y-96047618D02*
X139154819Y-96047618D01*
X139154819Y-96047618D02*
X139297676Y-96142856D01*
X139297676Y-96142856D02*
X139392914Y-96238094D01*
X139392914Y-96238094D02*
X139440533Y-96333332D01*
X147633333Y-83554819D02*
X147300000Y-83078628D01*
X147061905Y-83554819D02*
X147061905Y-82554819D01*
X147061905Y-82554819D02*
X147442857Y-82554819D01*
X147442857Y-82554819D02*
X147538095Y-82602438D01*
X147538095Y-82602438D02*
X147585714Y-82650057D01*
X147585714Y-82650057D02*
X147633333Y-82745295D01*
X147633333Y-82745295D02*
X147633333Y-82888152D01*
X147633333Y-82888152D02*
X147585714Y-82983390D01*
X147585714Y-82983390D02*
X147538095Y-83031009D01*
X147538095Y-83031009D02*
X147442857Y-83078628D01*
X147442857Y-83078628D02*
X147061905Y-83078628D01*
X148538095Y-82554819D02*
X148061905Y-82554819D01*
X148061905Y-82554819D02*
X148014286Y-83031009D01*
X148014286Y-83031009D02*
X148061905Y-82983390D01*
X148061905Y-82983390D02*
X148157143Y-82935771D01*
X148157143Y-82935771D02*
X148395238Y-82935771D01*
X148395238Y-82935771D02*
X148490476Y-82983390D01*
X148490476Y-82983390D02*
X148538095Y-83031009D01*
X148538095Y-83031009D02*
X148585714Y-83126247D01*
X148585714Y-83126247D02*
X148585714Y-83364342D01*
X148585714Y-83364342D02*
X148538095Y-83459580D01*
X148538095Y-83459580D02*
X148490476Y-83507200D01*
X148490476Y-83507200D02*
X148395238Y-83554819D01*
X148395238Y-83554819D02*
X148157143Y-83554819D01*
X148157143Y-83554819D02*
X148061905Y-83507200D01*
X148061905Y-83507200D02*
X148014286Y-83459580D01*
X133433333Y-98759580D02*
X133385714Y-98807200D01*
X133385714Y-98807200D02*
X133242857Y-98854819D01*
X133242857Y-98854819D02*
X133147619Y-98854819D01*
X133147619Y-98854819D02*
X133004762Y-98807200D01*
X133004762Y-98807200D02*
X132909524Y-98711961D01*
X132909524Y-98711961D02*
X132861905Y-98616723D01*
X132861905Y-98616723D02*
X132814286Y-98426247D01*
X132814286Y-98426247D02*
X132814286Y-98283390D01*
X132814286Y-98283390D02*
X132861905Y-98092914D01*
X132861905Y-98092914D02*
X132909524Y-97997676D01*
X132909524Y-97997676D02*
X133004762Y-97902438D01*
X133004762Y-97902438D02*
X133147619Y-97854819D01*
X133147619Y-97854819D02*
X133242857Y-97854819D01*
X133242857Y-97854819D02*
X133385714Y-97902438D01*
X133385714Y-97902438D02*
X133433333Y-97950057D01*
X133909524Y-98854819D02*
X134100000Y-98854819D01*
X134100000Y-98854819D02*
X134195238Y-98807200D01*
X134195238Y-98807200D02*
X134242857Y-98759580D01*
X134242857Y-98759580D02*
X134338095Y-98616723D01*
X134338095Y-98616723D02*
X134385714Y-98426247D01*
X134385714Y-98426247D02*
X134385714Y-98045295D01*
X134385714Y-98045295D02*
X134338095Y-97950057D01*
X134338095Y-97950057D02*
X134290476Y-97902438D01*
X134290476Y-97902438D02*
X134195238Y-97854819D01*
X134195238Y-97854819D02*
X134004762Y-97854819D01*
X134004762Y-97854819D02*
X133909524Y-97902438D01*
X133909524Y-97902438D02*
X133861905Y-97950057D01*
X133861905Y-97950057D02*
X133814286Y-98045295D01*
X133814286Y-98045295D02*
X133814286Y-98283390D01*
X133814286Y-98283390D02*
X133861905Y-98378628D01*
X133861905Y-98378628D02*
X133909524Y-98426247D01*
X133909524Y-98426247D02*
X134004762Y-98473866D01*
X134004762Y-98473866D02*
X134195238Y-98473866D01*
X134195238Y-98473866D02*
X134290476Y-98426247D01*
X134290476Y-98426247D02*
X134338095Y-98378628D01*
X134338095Y-98378628D02*
X134385714Y-98283390D01*
X129554819Y-81266666D02*
X129078628Y-81599999D01*
X129554819Y-81838094D02*
X128554819Y-81838094D01*
X128554819Y-81838094D02*
X128554819Y-81457142D01*
X128554819Y-81457142D02*
X128602438Y-81361904D01*
X128602438Y-81361904D02*
X128650057Y-81314285D01*
X128650057Y-81314285D02*
X128745295Y-81266666D01*
X128745295Y-81266666D02*
X128888152Y-81266666D01*
X128888152Y-81266666D02*
X128983390Y-81314285D01*
X128983390Y-81314285D02*
X129031009Y-81361904D01*
X129031009Y-81361904D02*
X129078628Y-81457142D01*
X129078628Y-81457142D02*
X129078628Y-81838094D01*
X128554819Y-80933332D02*
X128554819Y-80314285D01*
X128554819Y-80314285D02*
X128935771Y-80647618D01*
X128935771Y-80647618D02*
X128935771Y-80504761D01*
X128935771Y-80504761D02*
X128983390Y-80409523D01*
X128983390Y-80409523D02*
X129031009Y-80361904D01*
X129031009Y-80361904D02*
X129126247Y-80314285D01*
X129126247Y-80314285D02*
X129364342Y-80314285D01*
X129364342Y-80314285D02*
X129459580Y-80361904D01*
X129459580Y-80361904D02*
X129507200Y-80409523D01*
X129507200Y-80409523D02*
X129554819Y-80504761D01*
X129554819Y-80504761D02*
X129554819Y-80790475D01*
X129554819Y-80790475D02*
X129507200Y-80885713D01*
X129507200Y-80885713D02*
X129459580Y-80933332D01*
X128261905Y-79154819D02*
X128261905Y-78154819D01*
X128261905Y-78154819D02*
X128500000Y-78154819D01*
X128500000Y-78154819D02*
X128642857Y-78202438D01*
X128642857Y-78202438D02*
X128738095Y-78297676D01*
X128738095Y-78297676D02*
X128785714Y-78392914D01*
X128785714Y-78392914D02*
X128833333Y-78583390D01*
X128833333Y-78583390D02*
X128833333Y-78726247D01*
X128833333Y-78726247D02*
X128785714Y-78916723D01*
X128785714Y-78916723D02*
X128738095Y-79011961D01*
X128738095Y-79011961D02*
X128642857Y-79107200D01*
X128642857Y-79107200D02*
X128500000Y-79154819D01*
X128500000Y-79154819D02*
X128261905Y-79154819D01*
X129785714Y-79154819D02*
X129214286Y-79154819D01*
X129500000Y-79154819D02*
X129500000Y-78154819D01*
X129500000Y-78154819D02*
X129404762Y-78297676D01*
X129404762Y-78297676D02*
X129309524Y-78392914D01*
X129309524Y-78392914D02*
X129214286Y-78440533D01*
X134859580Y-94666666D02*
X134907200Y-94714285D01*
X134907200Y-94714285D02*
X134954819Y-94857142D01*
X134954819Y-94857142D02*
X134954819Y-94952380D01*
X134954819Y-94952380D02*
X134907200Y-95095237D01*
X134907200Y-95095237D02*
X134811961Y-95190475D01*
X134811961Y-95190475D02*
X134716723Y-95238094D01*
X134716723Y-95238094D02*
X134526247Y-95285713D01*
X134526247Y-95285713D02*
X134383390Y-95285713D01*
X134383390Y-95285713D02*
X134192914Y-95238094D01*
X134192914Y-95238094D02*
X134097676Y-95190475D01*
X134097676Y-95190475D02*
X134002438Y-95095237D01*
X134002438Y-95095237D02*
X133954819Y-94952380D01*
X133954819Y-94952380D02*
X133954819Y-94857142D01*
X133954819Y-94857142D02*
X134002438Y-94714285D01*
X134002438Y-94714285D02*
X134050057Y-94666666D01*
X134383390Y-94095237D02*
X134335771Y-94190475D01*
X134335771Y-94190475D02*
X134288152Y-94238094D01*
X134288152Y-94238094D02*
X134192914Y-94285713D01*
X134192914Y-94285713D02*
X134145295Y-94285713D01*
X134145295Y-94285713D02*
X134050057Y-94238094D01*
X134050057Y-94238094D02*
X134002438Y-94190475D01*
X134002438Y-94190475D02*
X133954819Y-94095237D01*
X133954819Y-94095237D02*
X133954819Y-93904761D01*
X133954819Y-93904761D02*
X134002438Y-93809523D01*
X134002438Y-93809523D02*
X134050057Y-93761904D01*
X134050057Y-93761904D02*
X134145295Y-93714285D01*
X134145295Y-93714285D02*
X134192914Y-93714285D01*
X134192914Y-93714285D02*
X134288152Y-93761904D01*
X134288152Y-93761904D02*
X134335771Y-93809523D01*
X134335771Y-93809523D02*
X134383390Y-93904761D01*
X134383390Y-93904761D02*
X134383390Y-94095237D01*
X134383390Y-94095237D02*
X134431009Y-94190475D01*
X134431009Y-94190475D02*
X134478628Y-94238094D01*
X134478628Y-94238094D02*
X134573866Y-94285713D01*
X134573866Y-94285713D02*
X134764342Y-94285713D01*
X134764342Y-94285713D02*
X134859580Y-94238094D01*
X134859580Y-94238094D02*
X134907200Y-94190475D01*
X134907200Y-94190475D02*
X134954819Y-94095237D01*
X134954819Y-94095237D02*
X134954819Y-93904761D01*
X134954819Y-93904761D02*
X134907200Y-93809523D01*
X134907200Y-93809523D02*
X134859580Y-93761904D01*
X134859580Y-93761904D02*
X134764342Y-93714285D01*
X134764342Y-93714285D02*
X134573866Y-93714285D01*
X134573866Y-93714285D02*
X134478628Y-93761904D01*
X134478628Y-93761904D02*
X134431009Y-93809523D01*
X134431009Y-93809523D02*
X134383390Y-93904761D01*
X129759580Y-91566666D02*
X129807200Y-91614285D01*
X129807200Y-91614285D02*
X129854819Y-91757142D01*
X129854819Y-91757142D02*
X129854819Y-91852380D01*
X129854819Y-91852380D02*
X129807200Y-91995237D01*
X129807200Y-91995237D02*
X129711961Y-92090475D01*
X129711961Y-92090475D02*
X129616723Y-92138094D01*
X129616723Y-92138094D02*
X129426247Y-92185713D01*
X129426247Y-92185713D02*
X129283390Y-92185713D01*
X129283390Y-92185713D02*
X129092914Y-92138094D01*
X129092914Y-92138094D02*
X128997676Y-92090475D01*
X128997676Y-92090475D02*
X128902438Y-91995237D01*
X128902438Y-91995237D02*
X128854819Y-91852380D01*
X128854819Y-91852380D02*
X128854819Y-91757142D01*
X128854819Y-91757142D02*
X128902438Y-91614285D01*
X128902438Y-91614285D02*
X128950057Y-91566666D01*
X128854819Y-91233332D02*
X128854819Y-90614285D01*
X128854819Y-90614285D02*
X129235771Y-90947618D01*
X129235771Y-90947618D02*
X129235771Y-90804761D01*
X129235771Y-90804761D02*
X129283390Y-90709523D01*
X129283390Y-90709523D02*
X129331009Y-90661904D01*
X129331009Y-90661904D02*
X129426247Y-90614285D01*
X129426247Y-90614285D02*
X129664342Y-90614285D01*
X129664342Y-90614285D02*
X129759580Y-90661904D01*
X129759580Y-90661904D02*
X129807200Y-90709523D01*
X129807200Y-90709523D02*
X129854819Y-90804761D01*
X129854819Y-90804761D02*
X129854819Y-91090475D01*
X129854819Y-91090475D02*
X129807200Y-91185713D01*
X129807200Y-91185713D02*
X129759580Y-91233332D01*
D11*
%TO.C,R4*%
X150120000Y-96032379D02*
X150120000Y-96367621D01*
X150880000Y-96032379D02*
X150880000Y-96367621D01*
%TO.C,C10*%
X130315835Y-84540000D02*
X130084165Y-84540000D01*
X130315835Y-85260000D02*
X130084165Y-85260000D01*
%TO.C,C12*%
X130080781Y-82238548D02*
X130312451Y-82238548D01*
X130080781Y-82958548D02*
X130312451Y-82958548D01*
%TO.C,C1*%
X135984165Y-78140000D02*
X136215835Y-78140000D01*
X135984165Y-78860000D02*
X136215835Y-78860000D01*
%TO.C,C6*%
X142440000Y-93484165D02*
X142440000Y-93715835D01*
X143160000Y-93484165D02*
X143160000Y-93715835D01*
%TO.C,C11*%
X131515835Y-89540000D02*
X131284165Y-89540000D01*
X131515835Y-90260000D02*
X131284165Y-90260000D01*
D12*
%TO.C,LED1*%
X149770687Y-95725000D02*
G75*
G02*
X149570687Y-95725000I-100000J0D01*
G01*
X149570687Y-95725000D02*
G75*
G02*
X149770687Y-95725000I100000J0D01*
G01*
D11*
%TO.C,Y1*%
X130000000Y-85850000D02*
X130000000Y-89150000D01*
X132800000Y-85850000D02*
X130000000Y-85850000D01*
%TO.C,SWD1*%
X140075000Y-79645000D02*
X140075000Y-80467470D01*
X140075000Y-81082530D02*
X140075000Y-81737470D01*
X140075000Y-82352530D02*
X140075000Y-83175000D01*
X145090000Y-79645000D02*
X140075000Y-79645000D01*
X145090000Y-79645000D02*
X145090000Y-80211529D01*
X145090000Y-81338471D02*
X145090000Y-81481529D01*
X145143471Y-81535000D02*
X145286529Y-81535000D01*
X145850000Y-79645000D02*
X146610000Y-79645000D01*
X146413471Y-81535000D02*
X146545000Y-81535000D01*
X146545000Y-81535000D02*
X146545000Y-81737470D01*
X146545000Y-82352530D02*
X146545000Y-83175000D01*
X146545000Y-83175000D02*
X140075000Y-83175000D01*
X146610000Y-79645000D02*
X146610000Y-80775000D01*
%TO.C,C7*%
X133740000Y-84515835D02*
X133740000Y-84284165D01*
X134460000Y-84515835D02*
X134460000Y-84284165D01*
%TO.C,J2*%
X120533000Y-79550000D02*
X121863000Y-79550000D01*
X120533000Y-80880000D02*
X120533000Y-79550000D01*
X120533000Y-82150000D02*
X120533000Y-97450000D01*
X120533000Y-82150000D02*
X123133000Y-82150000D01*
X120549000Y-97450000D02*
X128257000Y-97450000D01*
X123133000Y-79550000D02*
X128241000Y-79550000D01*
X123133000Y-82150000D02*
X123133000Y-79550000D01*
X128241000Y-79550000D02*
X128257000Y-97450000D01*
D13*
%TO.C,SW1*%
X148074400Y-82131900D02*
X151325600Y-82131900D01*
X151325600Y-79668100D02*
X148074400Y-79668100D01*
D11*
%TO.C,C5*%
X140884165Y-94240000D02*
X141115835Y-94240000D01*
X140884165Y-94960000D02*
X141115835Y-94960000D01*
%TO.C,C4*%
X144415835Y-78340000D02*
X144184165Y-78340000D01*
X144415835Y-79060000D02*
X144184165Y-79060000D01*
%TO.C,U2*%
X134790000Y-85290000D02*
X134790000Y-85590000D01*
X134790000Y-92510000D02*
X134790000Y-92210000D01*
X135090000Y-85290000D02*
X134790000Y-85290000D01*
X135090000Y-92510000D02*
X134790000Y-92510000D01*
X141710000Y-85290000D02*
X142010000Y-85290000D01*
X141710000Y-92510000D02*
X142010000Y-92510000D01*
X142010000Y-85290000D02*
X142010000Y-85590000D01*
X142010000Y-92510000D02*
X142010000Y-92210000D01*
X133218400Y-85572600D02*
X132878400Y-85102600D01*
X133558400Y-85102600D01*
X133218400Y-85572600D01*
G36*
X133218400Y-85572600D02*
G01*
X132878400Y-85102600D01*
X133558400Y-85102600D01*
X133218400Y-85572600D01*
G37*
%TO.C,C2*%
X138440000Y-81515835D02*
X138440000Y-81284165D01*
X139160000Y-81515835D02*
X139160000Y-81284165D01*
%TO.C,R1*%
X143689505Y-97914379D02*
X143354263Y-97914379D01*
X143689505Y-98674379D02*
X143354263Y-98674379D01*
%TO.C,R2*%
X143689505Y-96714379D02*
X143354263Y-96714379D01*
X143689505Y-97474379D02*
X143354263Y-97474379D01*
D13*
%TO.C,U1*%
X134925200Y-80372900D02*
X134925200Y-82227100D01*
X138074800Y-82227100D02*
X138074800Y-80372900D01*
D11*
%TO.C,J1*%
X148900000Y-84330000D02*
X147200000Y-84330000D01*
X148900000Y-93670000D02*
X147200000Y-93670000D01*
D14*
%TO.C,MT1*%
X135400000Y-95650000D02*
X135400000Y-95705000D01*
X135400000Y-95650000D02*
X135955000Y-95650000D01*
X135400000Y-98150000D02*
X135400000Y-98095000D01*
X135955000Y-98150000D02*
X135400000Y-98150000D01*
X137845000Y-95650000D02*
X138400000Y-95650000D01*
X138400000Y-95650000D02*
X138400000Y-95705000D01*
X138400000Y-98095000D02*
X138400000Y-98150000D01*
X138400000Y-98150000D02*
X137845000Y-98150000D01*
D10*
X138905400Y-97662000D02*
G75*
G02*
X138755400Y-97662000I-75000J0D01*
G01*
X138755400Y-97662000D02*
G75*
G02*
X138905400Y-97662000I75000J0D01*
G01*
D11*
%TO.C,R5*%
X149632379Y-82720000D02*
X149967621Y-82720000D01*
X149632379Y-83480000D02*
X149967621Y-83480000D01*
%TO.C,C9*%
X134140000Y-96484165D02*
X134140000Y-96715835D01*
X134860000Y-96484165D02*
X134860000Y-96715835D01*
%TO.C,R3*%
X130364237Y-83418548D02*
X130028995Y-83418548D01*
X130364237Y-84178548D02*
X130028995Y-84178548D01*
%TO.C,D1*%
X131700000Y-78540000D02*
X131050000Y-78540000D01*
X131700000Y-78540000D02*
X132350000Y-78540000D01*
X131700000Y-81660000D02*
X131050000Y-81660000D01*
X131700000Y-81660000D02*
X132350000Y-81660000D01*
X130537500Y-78590000D02*
X130297500Y-78260000D01*
X130777500Y-78260000D01*
X130537500Y-78590000D01*
G36*
X130537500Y-78590000D02*
G01*
X130297500Y-78260000D01*
X130777500Y-78260000D01*
X130537500Y-78590000D01*
G37*
%TO.C,C8*%
X137015835Y-94440000D02*
X136784165Y-94440000D01*
X137015835Y-95160000D02*
X136784165Y-95160000D01*
%TO.C,C3*%
X129140000Y-92540000D02*
X130340000Y-92540000D01*
X129140000Y-95995563D02*
X129140000Y-92540000D01*
X129590000Y-97550000D02*
X130090000Y-97550000D01*
X129840000Y-97800000D02*
X129840000Y-97300000D01*
X130204437Y-97060000D02*
X129140000Y-95995563D01*
X130204437Y-97060000D02*
X130340000Y-97060000D01*
X132595563Y-97060000D02*
X132460000Y-97060000D01*
X132595563Y-97060000D02*
X133660000Y-95995563D01*
X133660000Y-92540000D02*
X132460000Y-92540000D01*
X133660000Y-95995563D02*
X133660000Y-92540000D01*
%TD*%
M02*
