%TF.GenerationSoftware,KiCad,Pcbnew,9.0.0*%
%TF.CreationDate,2025-06-23T18:52:07-04:00*%
%TF.ProjectId,CRSF_PWM_Gyro,43525346-5f50-4574-9d5f-4779726f2e6b,rev?*%
%TF.SameCoordinates,Original*%
%TF.FileFunction,Plated,1,4,PTH,Mixed*%
%TF.FilePolarity,Positive*%
%FSLAX46Y46*%
G04 Gerber Fmt 4.6, Leading zero omitted, Abs format (unit mm)*
G04 Created by KiCad (PCBNEW 9.0.0) date 2025-06-23 18:52:07*
%MOMM*%
%LPD*%
G01*
G04 APERTURE LIST*
%TA.AperFunction,ViaDrill*%
%ADD10C,0.300000*%
%TD*%
G04 aperture for slot hole*
%TA.AperFunction,ComponentDrill*%
%ADD11C,0.600000*%
%TD*%
%TA.AperFunction,ComponentDrill*%
%ADD12C,0.650000*%
%TD*%
%TA.AperFunction,ComponentDrill*%
%ADD13C,1.000000*%
%TD*%
G04 APERTURE END LIST*
D10*
X129600000Y-86100000D03*
X129600000Y-87300000D03*
X129600000Y-88500000D03*
X129600000Y-89700000D03*
X130100000Y-92400000D03*
X130100000Y-93600000D03*
X130600000Y-90800000D03*
X131700000Y-83798548D03*
X132000000Y-85600000D03*
X132700000Y-92400000D03*
X132700000Y-93600000D03*
X132824151Y-87456609D03*
X133000000Y-89300000D03*
X133000000Y-90100000D03*
X133000000Y-90900000D03*
X133700000Y-96000000D03*
X133700000Y-97200000D03*
X134100000Y-81900000D03*
X134100000Y-82900000D03*
X134200000Y-92500000D03*
X134300000Y-81100000D03*
X135400000Y-94800000D03*
X135500000Y-88500000D03*
X136400000Y-91800000D03*
X136700000Y-86500000D03*
X136700000Y-87500000D03*
X136900000Y-96900000D03*
X137200000Y-91800000D03*
X137600000Y-78500000D03*
X137600000Y-87800000D03*
X138000000Y-91800000D03*
X138400000Y-83200000D03*
X138400000Y-94800000D03*
X138800000Y-79900000D03*
X139000000Y-97700000D03*
X139000001Y-96695436D03*
X139562133Y-94338618D03*
X139600000Y-82000000D03*
X139601000Y-95700000D03*
X140300000Y-89900000D03*
X140400000Y-95500000D03*
X141200000Y-87700000D03*
X141200000Y-88500000D03*
X141600000Y-95500000D03*
X141955000Y-83400000D03*
X142000000Y-93000000D03*
X142100000Y-97100000D03*
X142100000Y-98300000D03*
X142800000Y-95100000D03*
X142900000Y-78700000D03*
X144100000Y-87300000D03*
X145500000Y-95725000D03*
X145500000Y-96675000D03*
X145800000Y-78700000D03*
X146800000Y-83300000D03*
X148200000Y-90900000D03*
X149300000Y-97600000D03*
X150100000Y-89000000D03*
X150300000Y-80900000D03*
X150500000Y-94600000D03*
X151300000Y-83100000D03*
D11*
%TO.C,J1*%
X146445000Y-84680000D02*
X145345000Y-84680000D01*
X146445000Y-93320000D02*
X145345000Y-93320000D01*
X150475000Y-84680000D02*
X149675000Y-84680000D01*
X150475000Y-93320000D02*
X149675000Y-93320000D01*
D12*
%TO.C,SWD1*%
X140770000Y-80775000D03*
X140770000Y-82045000D03*
X142040000Y-80775000D03*
X142040000Y-82045000D03*
X143310000Y-80775000D03*
X143310000Y-82045000D03*
X144580000Y-80775000D03*
X144580000Y-82045000D03*
X145850000Y-80775000D03*
X145850000Y-82045000D03*
D13*
%TO.C,J2*%
X121863000Y-80880000D03*
X121863000Y-83420000D03*
X121863000Y-85960000D03*
X121863000Y-88500000D03*
X121863000Y-91040000D03*
X121863000Y-93580000D03*
X121863000Y-96120000D03*
X124403000Y-80880000D03*
X124403000Y-83420000D03*
X124403000Y-85960000D03*
X124403000Y-88500000D03*
X124403000Y-91040000D03*
X124403000Y-93580000D03*
X124403000Y-96120000D03*
X126943000Y-80880000D03*
X126943000Y-83420000D03*
X126943000Y-85960000D03*
X126943000Y-88500000D03*
X126943000Y-91040000D03*
X126943000Y-93580000D03*
X126943000Y-96120000D03*
M02*
